<svg width="15" height="15" viewBox="0 0 15 15" fill="none" xmlns="http://www.w3.org/2000/svg">
<path d="M4.00122 10.2838C3.92437 13.6044 7.39939 14.682 10.1921 14.7027C11.0685 14.7118 12.1486 14.7534 12.8719 14.182C13.2861 13.8705 13.2937 13.2481 13.0439 12.831C12.9865 12.7372 13.0009 12.6762 13.0869 12.6481C13.5474 12.4571 13.875 12.0357 13.875 11.5293C13.875 11.2243 13.7938 10.9687 13.6314 10.7623C13.555 10.6544 13.5765 10.5676 13.6959 10.5019C14.0129 10.3227 14.2261 9.92723 14.2261 9.48866C14.2261 9.17616 14.1194 8.83975 13.9395 8.67241C13.844 8.58798 13.8512 8.49885 13.961 8.40503C14.1849 8.23293 14.3193 7.91011 14.3193 7.53249C14.3193 7.19943 14.2023 6.91797 13.9682 6.68811C13.7341 6.45355 13.4451 6.33628 13.1012 6.33628H10.6578C10.3473 6.33628 10.0965 6.26357 9.90545 6.11814C9.53772 5.82925 9.55215 5.35532 9.7908 4.71083C10.1708 3.72562 11.4599 1.86192 10.5073 0.97442C10.3258 0.796161 10.0989 0.707031 9.82663 0.707031C9.3031 0.707031 9.03367 1.13919 8.81632 1.55845C8.30041 2.54826 7.7248 3.44894 7.08947 4.26049C5.9985 5.66463 4.59257 7.07714 4.15169 8.84833C4.05137 9.27052 4.00122 9.74901 4.00122 10.2838Z" fill="black"/>
</svg>
