<svg width="14" height="15" viewBox="0 0 14 15" fill="none" xmlns="http://www.w3.org/2000/svg">
<path d="M14 10.1101C14 10.8402 13.8907 11.4913 13.6721 12.0633C13.4489 12.6306 13.1374 13.1096 12.7374 13.5003C12.3328 13.8955 11.8585 14.1955 11.3144 14.4001C10.7657 14.6047 10.1704 14.707 9.52865 14.707C8.48231 14.707 7.61269 14.4768 6.91978 14.0164C6.22687 13.5561 5.66883 12.8562 5.24564 11.9168C5.12473 11.6703 5.0108 11.4146 4.90384 11.1495C4.79688 10.8844 4.69457 10.6077 4.59691 10.3194C4.4946 10.0311 4.39462 9.73344 4.29696 9.42651C4.1993 9.11494 4.09932 8.79174 3.99701 8.45691C3.95051 8.29414 3.89935 8.12208 3.84355 7.94071C3.78309 7.75935 3.73194 7.58961 3.69009 7.4315C3.64823 7.27338 3.6273 7.14782 3.6273 7.05482C3.6273 6.8781 3.68543 6.73859 3.80169 6.63628C3.91795 6.52932 4.06677 6.47584 4.24813 6.47584C4.44345 6.47584 4.61086 6.54095 4.75037 6.67116C4.88524 6.79672 5.02242 7.00599 5.16193 7.29896L6.06178 9.24515C6.11294 9.35676 6.16642 9.43581 6.22222 9.48232C6.27803 9.52882 6.33616 9.55207 6.39661 9.55207C6.46637 9.55207 6.5245 9.5265 6.571 9.47534C6.61751 9.42419 6.64076 9.33583 6.64076 9.21027L6.64076 2.38815C6.64076 2.19748 6.70819 2.03704 6.84305 1.90683C6.97791 1.77197 7.14067 1.70454 7.33134 1.70454C7.52201 1.70454 7.68477 1.77197 7.81963 1.90683C7.94984 2.03704 8.01495 2.19748 8.01495 2.38815L8.01495 7.25013C8.10796 7.21293 8.20561 7.1827 8.30792 7.15945C8.41023 7.13155 8.51254 7.10364 8.61485 7.07574L8.61485 1.39064C8.61485 1.20462 8.68228 1.04419 8.81714 0.909324C8.952 0.774462 9.11476 0.707032 9.30543 0.707032C9.4961 0.707032 9.65886 0.774462 9.79372 0.909324C9.92393 1.04418 9.98904 1.20462 9.98904 1.39064L9.98904 7.00599C10.1006 7.01529 10.2123 7.02691 10.3239 7.04086C10.4308 7.05481 10.5378 7.07109 10.6447 7.08969L10.6447 1.98356C10.6447 1.7929 10.7122 1.63246 10.847 1.50225C10.9819 1.36739 11.1447 1.29996 11.3353 1.29996C11.5213 1.29996 11.6818 1.36739 11.8166 1.50225C11.9515 1.63246 12.0189 1.7929 12.0189 1.98356L12.0189 7.52915C12.1305 7.58031 12.2375 7.63611 12.3398 7.69657C12.4421 7.75702 12.5375 7.8198 12.6258 7.88491L12.6258 4.02741C12.6258 3.83674 12.6932 3.67398 12.8281 3.53912C12.963 3.40426 13.1257 3.33683 13.3164 3.33683C13.5024 3.33683 13.6628 3.40426 13.7977 3.53912C13.9326 3.67398 14 3.83674 14 4.02741L14 10.1101Z" fill="black"/>
</svg>
