<svg width="14" height="15" viewBox="0 0 14 15" fill="none" xmlns="http://www.w3.org/2000/svg">
<path d="M6.58798 2.81962L7 3.41893L7.41202 2.81962C8.02981 1.92101 9.02873 1.31818 10.1818 1.31818C12.0057 1.31818 13.5 2.8125 13.5 4.63636C13.5 5.45284 13.1195 6.43074 12.4796 7.47791C11.8466 8.51367 10.995 9.56095 10.1314 10.503C9.26963 11.4432 8.40622 12.2675 7.75741 12.8573C7.44721 13.1393 7.18678 13.3671 7 13.5275C6.81322 13.3671 6.55279 13.1393 6.24259 12.8573C5.59378 12.2675 4.73037 11.4432 3.86858 10.503C3.005 9.56095 2.15336 8.51367 1.52039 7.47791C0.880455 6.43074 0.5 5.45284 0.5 4.63636C0.5 2.8125 1.99432 1.31818 3.81818 1.31818C4.97127 1.31818 5.97018 1.92101 6.58798 2.81962Z" stroke="black"/>
</svg>
