<svg width="20" height="20" viewBox="0 0 20 20" fill="current" xmlns="http://www.w3.org/2000/svg">
<path d="M15 10.8332V16.6665H3.33332V4.99984H7.51666C7.55832 4.40817 7.69999 3.84984 7.91666 3.33317H3.33332C2.41666 3.33317 1.66666 4.08317 1.66666 4.99984V16.6665C1.66666 17.5832 2.41666 18.3332 3.33332 18.3332H15C15.9167 18.3332 16.6667 17.5832 16.6667 16.6665V12.4998L15 10.8332ZM13.75 14.9998H4.58332L6.87499 12.0582L8.50832 14.0248L10.8 11.0748L13.75 14.9998ZM16.0833 7.40817C16.45 6.82484 16.6667 6.14984 16.6667 5.4165C16.6667 3.3415 14.9917 1.6665 12.9167 1.6665C10.8417 1.6665 9.16666 3.3415 9.16666 5.4165C9.16666 7.4915 10.8417 9.1665 12.9083 9.1665C13.6417 9.1665 14.325 8.94984 14.9 8.58317L17.5 11.1832L18.6833 9.99984L16.0833 7.40817ZM12.9167 7.49984C11.7667 7.49984 10.8333 6.5665 10.8333 5.4165C10.8333 4.2665 11.7667 3.33317 12.9167 3.33317C14.0667 3.33317 15 4.2665 15 5.4165C15 6.5665 14.0667 7.49984 12.9167 7.49984Z" fill="current"/>
</svg>
