<svg width="12" height="15" viewBox="0 0 12 15" fill="none" xmlns="http://www.w3.org/2000/svg">
<path d="M4.33337 14L8.06671 14" stroke="#757575"/>
<mask id="path-2-inside-1_1868_13104" fill="white">
<path fill-rule="evenodd" clip-rule="evenodd" d="M8.99993 10.4509C10.6739 9.48267 11.8001 7.67286 11.8001 5.6C11.8001 2.50721 9.29289 0 6.2001 0C3.1073 0 0.600098 2.50721 0.600098 5.6C0.600098 7.67272 1.72618 9.48244 3.39994 10.4507V12.1333H8.99993V10.4509Z"/>
</mask>
<path d="M8.99993 10.4509L8.49924 9.58529L7.99993 9.8741V10.4509H8.99993ZM3.39994 10.4507H4.39994V9.87396L3.90069 9.58514L3.39994 10.4507ZM3.39994 12.1333H2.39994V13.1333H3.39994V12.1333ZM8.99993 12.1333V13.1333H9.99993V12.1333H8.99993ZM10.8001 5.6C10.8001 7.30145 9.87686 8.78844 8.49924 9.58529L9.50063 11.3165C11.4709 10.1769 12.8001 8.04427 12.8001 5.6H10.8001ZM6.2001 1C8.74061 1 10.8001 3.05949 10.8001 5.6H12.8001C12.8001 1.95492 9.84518 -1 6.2001 -1V1ZM1.6001 5.6C1.6001 3.05949 3.65959 1 6.2001 1V-1C2.55502 -1 -0.399902 1.95492 -0.399902 5.6H1.6001ZM3.90069 9.58514C2.52321 8.78825 1.6001 7.30133 1.6001 5.6H-0.399902C-0.399902 8.04411 0.929151 10.1766 2.89918 11.3163L3.90069 9.58514ZM4.39994 12.1333V10.4507H2.39994V12.1333H4.39994ZM8.99993 11.1333H3.39994V13.1333H8.99993V11.1333ZM7.99993 10.4509V12.1333H9.99993V10.4509H7.99993Z" fill="#757575" mask="url(#path-2-inside-1_1868_13104)"/>
</svg>
