<svg width="13" height="17" viewBox="0 0 13 17" fill="none" xmlns="http://www.w3.org/2000/svg">
<path d="M6.49992 15.421C6.39323 15.2938 6.27181 15.1471 6.13873 14.9831C5.62757 14.3533 4.9471 13.4722 4.26791 12.4656C3.58748 11.4571 2.91636 10.3343 2.41733 9.22042C1.91448 8.09799 1.60825 7.03222 1.60825 6.12467C1.60825 3.41991 3.79515 1.23301 6.49992 1.23301C9.20468 1.23301 11.3916 3.41991 11.3916 6.12467C11.3916 7.03222 11.0854 8.09799 10.5825 9.22042C10.0835 10.3343 9.41236 11.4571 8.73193 12.4656C8.05274 13.4722 7.37226 14.3533 6.86111 14.9831C6.72802 15.1471 6.60661 15.2938 6.49992 15.421ZM3.87075 6.12467C3.87075 7.57616 5.04843 8.75384 6.49992 8.75384C7.9514 8.75384 9.12909 7.57616 9.12909 6.12467C9.12909 4.67319 7.9514 3.49551 6.49992 3.49551C5.04843 3.49551 3.87075 4.67319 3.87075 6.12467Z" stroke="#757575" stroke-width="1.3"/>
</svg>
