<svg width="14" height="15" viewBox="0 0 14 15" fill="none" xmlns="http://www.w3.org/2000/svg">
<path d="M12.3204 3.06217L14 1.38292L13.324 0.707031L11.6444 2.38632C10.4994 3.39375 9.02648 3.94946 7.50127 3.94946C5.97606 3.94946 4.50311 3.39375 3.35815 2.38632L1.67856 0.707031L0.999999 1.38292L2.68219 3.06217C3.69002 4.20732 4.24594 5.68039 4.24594 7.20573C4.24594 8.73107 3.69002 10.2042 2.68219 11.3493L1.0026 13.0312L1.67856 13.707L3.35815 12.0252C4.50236 11.0162 5.97559 10.4594 7.50127 10.4594C9.02695 10.4594 10.5002 11.0162 11.6444 12.0252L13.324 13.7044L14 13.0286L12.3204 11.3493C11.3126 10.2042 10.7566 8.73107 10.7566 7.20573C10.7566 5.68039 11.3126 4.20732 12.3204 3.06217Z" fill="black"/>
</svg>
