<svg width="14" height="14" viewBox="0 0 14 14" fill="none" xmlns="http://www.w3.org/2000/svg">
<path d="M11.8275 7.36376L13.6361 7.36394L13.636 6.63599L11.8274 6.63582C10.6684 6.56177 9.57602 6.06787 8.75476 5.24661C7.93349 4.42534 7.4396 3.33299 7.36554 2.17401L7.36538 0.365381L6.63606 0.363941L6.63764 2.17395C6.5637 3.33324 6.06985 4.42577 5.24851 5.24711C4.42717 6.06845 3.33463 6.56231 2.17533 6.63626L0.365325 6.63748L0.365381 7.36538L2.17539 7.36416C3.33481 7.43696 4.42787 7.93046 5.24939 8.75197C6.07091 9.57349 6.5644 10.6666 6.63721 11.826L6.63739 13.6346L7.36532 13.6347L7.36514 11.8261C7.43909 10.6668 7.93292 9.57419 8.75426 8.75285C9.57559 7.93152 10.6682 7.4377 11.8275 7.36376Z" fill="black"/>
</svg>
