<svg width="40" height="40" viewBox="0 0 40 40" fill="none" xmlns="http://www.w3.org/2000/svg">
<path d="M38.3042 0.620853L29.3699 9.49596C26.4891 11.0126 23.2782 11.805 20.0179 11.8041C16.7576 11.8031 13.5473 11.0088 10.6676 9.49057L1.73712 0.61923C1.57439 0.457579 1.35371 0.366741 1.12356 0.366749C0.893423 0.366758 0.672675 0.457614 0.509934 0.619277C0.347192 0.780941 0.255732 1.00023 0.255723 1.22884C0.255714 1.45746 0.347158 1.67668 0.509886 1.83833L9.44344 10.7127C10.9708 13.5732 11.7696 16.7619 11.77 19.9999C11.7704 23.238 10.9725 26.427 9.4458 29.2881L0.511522 38.1632C0.348781 38.3249 0.257386 38.5441 0.257377 38.7727C0.257368 39.0013 0.348747 39.2206 0.511474 39.3823C0.674203 39.5439 0.894952 39.6347 1.12509 39.6347C1.35524 39.6346 1.57592 39.5439 1.73866 39.3822L10.6637 30.5163C13.5443 28.9967 16.7558 28.2016 20.0172 28.2004C23.2787 28.1992 26.4907 28.992 29.3721 30.5094L38.3026 39.3808C38.4653 39.5424 38.686 39.6333 38.9162 39.6333C39.1463 39.6333 39.3671 39.5424 39.5298 39.3807C39.6925 39.2191 39.784 38.9998 39.784 38.7712C39.784 38.5426 39.6926 38.3233 39.5299 38.1617L30.5994 29.2903C29.0719 26.4286 28.2735 23.2386 28.2742 19.9993C28.2749 16.76 29.0745 13.5702 30.6032 10.7089L39.5313 1.83986C39.694 1.6782 39.7854 1.45898 39.7854 1.23036C39.7854 1.00174 39.6941 0.782457 39.5313 0.620806C39.3686 0.459157 39.1478 0.368384 38.9177 0.368393C38.6876 0.368401 38.4669 0.459191 38.3042 0.620853Z" fill="white" stroke="white" stroke-width="0.2"/>
</svg>
