<svg width="703" height="62" viewBox="0 0 703 62" fill="none" xmlns="http://www.w3.org/2000/svg">
<path d="M4.12519 7.29672L11.138 23.11L7.28784 23.7975L0 7.29672H4.12519ZM18.7009 40.2983L33.1391 7.29672H37.2642L19.3884 47.0361L17.7383 47.4486L8.93792 27.7852L12.7881 27.0976L18.7009 40.2983ZM72.7409 7.29672L71.5034 10.5969H47.5772L48.8148 7.15921H72.7409V7.29672ZM52.39 14.0345V43.4609H73.0159L71.7784 46.8986H48.8148V14.8596L52.39 14.0345ZM68.3407 28.1977H55.0026L56.2401 24.76H69.5783L68.3407 28.1977ZM101.892 29.2978L113.993 46.7611L110.143 47.5861L98.0421 29.8478H92.2668L93.3669 26.5476H98.1796C103.405 26.5476 107.255 23.385 107.255 18.5722C107.255 14.0345 103.68 10.8719 97.4921 10.8719H84.5665L85.804 7.43422H97.7671C106.017 7.43422 110.968 12.1094 110.968 18.2972C110.968 24.0725 106.98 27.9227 101.892 29.2978ZM85.804 46.8986V14.8596L89.3792 14.0345V46.8986H85.804ZM127.331 46.8986V7.43422L130.906 6.60919V46.7611H127.331V46.8986ZM168.308 36.4481C168.308 42.6359 163.358 47.7236 155.52 47.7236C151.395 47.7236 146.719 45.936 143.832 43.7359L145.619 40.5733C148.369 42.6359 152.357 44.1484 155.657 44.1484C160.745 44.1484 164.458 40.7108 164.458 36.7231C164.458 27.9227 145.757 27.5102 145.757 16.7847C145.757 11.0094 150.157 6.47168 157.307 6.47168C161.02 6.47168 165.008 7.84674 168.033 9.77183L166.383 12.9345C163.495 11.1469 160.058 10.0468 157.032 10.0468C152.495 10.0468 149.607 13.2095 149.607 16.5096C149.607 24.3475 168.308 24.8975 168.308 36.4481ZM203.097 26.8226L197.047 13.7595L181.784 46.8986H177.658L196.222 7.15921L197.872 6.8842L206.947 26.1351L203.097 26.8226ZM192.922 30.2603H208.872L216.573 46.8986H212.31L206.122 33.698H191.271L192.922 30.2603ZM243.524 29.2978L255.624 46.6236L251.774 47.4486L239.674 29.7103H233.898L234.999 26.4101H239.811C245.036 26.4101 248.887 23.2475 248.887 18.4347C248.887 13.897 245.311 10.7344 239.124 10.7344H226.198L227.436 7.29672H239.399C247.649 7.29672 252.599 11.9719 252.599 18.1597C252.599 24.0725 248.612 27.9227 243.524 29.2978ZM227.436 46.8986V14.8596L231.011 14.0345V46.8986H227.436ZM262.912 7.29672H294.126L292.889 10.7344H261.675L262.912 7.29672ZM276.113 46.8986V14.8596L279.688 14.0345V46.8986H276.113Z" fill="black"/>
<path d="M405.588 49.6109C412.468 49.6109 421.689 46.1017 421.689 34.7483C421.689 26.6289 415.771 22.9132 406.688 19.748C397.537 16.3764 392.996 14.5186 392.996 9.49557C392.996 3.92209 397.262 1.03213 402.216 1.03213C408.821 1.03213 413.982 6.67442 419.349 16.9269H419.487L418.592 0.688083C417.698 0.894509 416.597 1.03213 415.496 1.03213C411.436 1.03213 408.753 0 402.973 0C395.817 0 386.596 4.12851 386.596 14.7938C386.596 21.3306 389.486 25.872 400.358 29.5188C409.166 32.6152 415.221 35.0235 415.221 40.1153C415.221 45.6888 411.574 48.5788 406.344 48.5788C395.954 48.5788 390.656 37.363 387.629 30.4821H387.491V49.4733C388.798 48.7164 390.587 48.0971 393.546 48.1659C397.124 48.2347 401.459 49.6109 405.588 49.6109ZM456.209 40.4594V14.4498H443.411V14.5874C446.232 16.2388 446.438 19.1976 446.438 22.8444V44.3126C444.443 45.62 442.86 45.8952 441.553 45.8952C439.282 45.8952 438.388 44.1062 438.388 41.9043V14.4498H424.97V14.5874C428.479 16.4452 428.617 19.1976 428.617 22.8444V43.5558C428.617 46.5833 430.131 49.2669 434.81 49.2669C439.076 49.2669 443.686 46.9962 446.438 45.3448V48.854H459.856V48.7164C456.416 46.8585 456.209 44.1062 456.209 40.4594ZM477.384 48.854C485.779 48.854 495.481 43.5557 495.481 30.6198C495.481 19.404 488.256 14.4498 478.348 14.4498H462.384V14.5874C465.893 16.4452 466.031 19.1976 466.031 22.8444V52.8449C466.031 56.4917 465.893 59.2441 462.384 61.1019V61.2395H479.449V61.1019C475.939 59.2441 475.802 56.4917 475.802 52.8449V48.854H477.384ZM475.939 15.4131C481.1 15.4131 485.435 24.427 485.435 35.6428C485.435 46.2393 481.994 47.8907 477.728 47.8907H475.802V15.4131H475.939ZM520.562 41.7667C515.883 41.7667 510.241 38.3263 509.897 28.7619H530.402C529.851 19.3352 524.003 13.8305 516.984 13.8305C509.69 13.8305 501.158 19.748 501.158 31.7207C501.158 43.8998 509.071 49.4733 516.158 49.4733C523.452 49.4733 528.131 43.0053 529.851 37.4318L529.714 37.363C526.892 40.1153 523.452 41.7667 520.562 41.7667ZM515.539 14.6562C518.704 14.6562 521.113 19.9545 521.388 27.7986H509.897C509.897 18.3719 513.268 14.6562 515.539 14.6562ZM560.131 23.1884C559.099 16.1012 554.833 14.4498 549.672 14.4498H533.708V14.5874C537.218 16.4452 537.355 19.1976 537.355 22.8444V40.4594C537.355 44.1062 537.218 46.8585 533.708 48.7164V48.854H550.773V48.7164C547.264 46.8585 547.126 44.1062 547.126 40.4594V15.2755H547.264C550.566 15.2755 552.218 21.0554 551.874 27.7298L560.131 23.1884ZM600.567 38.2575L591.898 24.4958C598.778 22.982 602.425 18.9223 602.425 13.6241C602.425 4.88541 594.581 0.688083 587.563 0.688083H563.067V0.825703C566.232 2.27068 568.227 5.43587 568.227 9.08272V40.4594C568.227 44.1062 566.232 47.2714 563.067 48.7164V48.854H584.122V48.7164C580.957 47.2714 579.03 44.1062 579.03 40.4594V24.8399C581.301 25.0463 581.852 26.4913 585.223 32.8216L594.65 48.854H609.031V48.7164C606.691 47.4778 604.214 44.0374 600.567 38.2575ZM580.269 1.65141C586.324 1.65141 591.347 7.08727 591.347 14.381C591.347 21.6059 587.219 24.2894 582.815 24.2894C581.507 24.2894 580.2 24.2206 579.03 24.0141V1.65141H580.269ZM637.933 40.4594V22.0187C637.933 17.6838 635.663 13.9681 628.851 13.9681C624.791 13.9681 620.8 14.5874 617.704 15.1379L611.992 22.7756L612.13 22.9132C614.607 20.7113 620.869 15.0691 624.584 15.0691C627.199 15.0691 628.575 17.4773 628.575 20.3673C628.575 24.427 626.167 26.2848 619.561 30.2069C613.575 33.7161 610.547 35.918 610.547 41.0098C610.547 44.6567 613.162 49.198 619.286 49.198C622.383 49.198 626.098 46.5833 628.3 44.7255V48.854H641.58V48.7164C638.071 46.8585 637.933 44.1062 637.933 40.4594ZM624.447 45.8264C622.314 45.8264 619.768 43.0053 619.768 38.808C619.768 31.7207 621.488 30.6886 628.3 25.1151V41.1474C628.3 44.1062 626.58 45.8264 624.447 45.8264ZM670.745 23.1884C669.713 16.1012 665.446 14.4498 660.286 14.4498H644.322V14.5874C647.831 16.4452 647.969 19.1976 647.969 22.8444V40.4594C647.969 44.1062 647.831 46.8585 644.322 48.7164V48.854H661.387V48.7164C657.877 46.8585 657.74 44.1062 657.74 40.4594V15.2755H657.877C661.18 15.2755 662.832 21.0554 662.488 27.7298L670.745 23.1884ZM693.161 41.7667C688.482 41.7667 682.84 38.3263 682.496 28.7619H703.001C702.45 19.3352 696.601 13.8305 689.583 13.8305C682.289 13.8305 673.757 19.748 673.757 31.7207C673.757 43.8998 681.67 49.4733 688.757 49.4733C696.051 49.4733 700.73 43.0053 702.45 37.4318L702.312 37.363C699.491 40.1153 696.051 41.7667 693.161 41.7667ZM688.138 14.6562C691.303 14.6562 693.711 19.9545 693.987 27.7986H682.496C682.496 18.3719 685.867 14.6562 688.138 14.6562Z" fill="black"/>
<line x1="327.557" y1="20.373" x2="343.755" y2="36.5712" stroke="black"/>
<line y1="-0.5" x2="22.9077" y2="-0.5" transform="matrix(-0.707107 0.707107 0.707107 0.707107 343.401 20.7266)" stroke="black"/>
</svg>
