<svg width="148" height="86" viewBox="0 0 148 86" fill="none" xmlns="http://www.w3.org/2000/svg">
<path d="M7.91785 1.34651L11.1765 8.69451L9.38745 9.01399L6.00098 1.34651H7.91785V1.34651ZM14.6908 16.6815L21.3998 1.34651H23.3167L15.0103 19.8124L14.2435 20.004L10.1542 10.867L11.9433 10.5475L14.6908 16.6815ZM39.8018 1.34651L39.2267 2.88H28.1089L28.6839 1.28261H39.8018V1.34651ZM30.3452 4.4774V18.1511H39.9296L39.3545 19.7485H28.6839V4.86077L30.3452 4.4774ZM37.7571 11.0586H31.5592L32.1343 9.46126H38.3322L37.7571 11.0586ZM53.3477 11.5698L58.9705 19.6846L57.1814 20.0679L51.5586 11.8254H48.875L49.3861 10.2919H51.6225C54.0505 10.2919 55.8396 8.8223 55.8396 6.58595C55.8396 4.4774 54.1783 3.0078 51.303 3.0078H45.2968L45.8719 1.4104H51.4308C55.2645 1.4104 57.5648 3.58286 57.5648 6.45816C57.5648 9.14178 55.7118 10.9309 53.3477 11.5698ZM45.8719 19.7485V4.86077L47.5332 4.4774V19.7485H45.8719ZM65.1684 19.7485V1.4104L66.8297 1.02703V19.6846H65.1684V19.7485ZM84.2093 14.8924C84.2093 17.7677 81.909 20.1318 78.267 20.1318C76.3501 20.1318 74.1777 19.3012 72.8358 18.2789L73.6665 16.8093C74.9444 17.7677 76.7974 18.4705 78.3309 18.4705C80.695 18.4705 82.4202 16.8732 82.4202 15.0202C82.4202 10.9309 73.7304 10.7392 73.7304 5.75531C73.7304 3.07169 75.775 0.963135 79.0976 0.963135C80.8228 0.963135 82.6758 1.60209 84.0815 2.49663L83.3147 3.96623C81.9729 3.13559 80.3755 2.62442 78.9698 2.62442C76.8613 2.62442 75.5195 4.09402 75.5195 5.62752C75.5195 9.26957 84.2093 9.52515 84.2093 14.8924ZM100.375 10.4197L97.5635 4.3496L90.471 19.7485H88.5542L97.1801 1.28261L97.9468 1.15482L102.164 10.1002L100.375 10.4197ZM95.6466 12.0171H103.058L106.637 19.7485H104.656L101.781 13.6145H94.8798L95.6466 12.0171ZM119.16 11.5698L124.783 19.6207L122.994 20.004L117.371 11.7615H114.687L115.199 10.228H117.435C119.863 10.228 121.652 8.75841 121.652 6.52206C121.652 4.4135 119.991 2.9439 117.116 2.9439H111.109L111.684 1.34651H117.243C121.077 1.34651 123.377 3.51896 123.377 6.39427C123.377 9.14178 121.524 10.9309 119.16 11.5698ZM111.684 19.7485V4.86077L113.346 4.4774V19.7485H111.684ZM128.169 1.34651H142.674L142.099 2.9439H127.594L128.169 1.34651ZM134.303 19.7485V4.86077L135.965 4.4774V19.7485H134.303Z" fill="black"/>
<path d="M9.80027 79.8301C12.9976 79.8301 17.2821 78.1995 17.2821 72.9238C17.2821 69.151 14.5323 67.4244 10.3118 65.9536C6.05937 64.3869 3.94912 63.5236 3.94912 61.1896C3.94912 58.5997 5.93148 57.2568 8.23357 57.2568C11.303 57.2568 13.701 59.8787 16.195 64.6427H16.2589L15.8433 57.097C15.4276 57.1929 14.916 57.2568 14.4045 57.2568C12.518 57.2568 11.2711 56.7772 8.58528 56.7772C5.26003 56.7772 0.975586 58.6956 0.975586 63.6515C0.975586 66.689 2.31847 68.7993 7.37028 70.4939C11.4629 71.9327 14.2766 73.0517 14.2766 75.4178C14.2766 78.0076 12.582 79.3505 10.152 79.3505C5.32398 79.3505 2.86202 74.1388 1.45519 70.9415H1.39124V79.7662C1.99874 79.4145 2.83005 79.1267 4.20491 79.1587C5.86753 79.1906 7.88186 79.8301 9.80027 79.8301ZM33.3228 75.5776V63.4917H27.3757V63.5556C28.6867 64.323 28.7826 65.6978 28.7826 67.3924V77.3681C27.8553 77.9756 27.12 78.1035 26.5125 78.1035C25.4573 78.1035 25.0417 77.2722 25.0417 76.2491V63.4917H18.8068V63.5556C20.4375 64.4189 20.5014 65.6978 20.5014 67.3924V77.0164C20.5014 78.4233 21.2049 79.6702 23.3791 79.6702C25.3614 79.6702 27.5036 78.6151 28.7826 77.8478V79.4784H35.0174V79.4144C33.4187 78.5512 33.3228 77.2722 33.3228 75.5776ZM43.1624 79.4784C47.0631 79.4784 51.5714 77.0164 51.5714 71.0054C51.5714 65.7937 48.2142 63.4917 43.61 63.4917H36.1921V63.5556C37.8228 64.4189 37.8867 65.6978 37.8867 67.3924V81.3329C37.8867 83.0275 37.8228 84.3064 36.1921 85.1697V85.2336H44.1216V85.1697C42.4909 84.3064 42.427 83.0275 42.427 81.3329V79.4784H43.1624ZM42.4909 63.9393C44.8889 63.9393 46.9033 68.1278 46.9033 73.3395C46.9033 78.2634 45.3046 79.0308 43.3222 79.0308H42.427V63.9393H42.4909ZM63.226 76.1851C61.0518 76.1851 58.4299 74.5865 58.2701 70.1421H67.7982C67.5424 65.7618 64.8246 63.2039 61.5633 63.2039C58.1741 63.2039 54.2094 65.9536 54.2094 71.517C54.2094 77.1763 57.8864 79.7662 61.1797 79.7662C64.5688 79.7662 66.743 76.7607 67.5424 74.1708L67.4784 74.1388C66.1675 75.4178 64.5688 76.1851 63.226 76.1851ZM60.8919 63.5876C62.3627 63.5876 63.4817 66.0495 63.6096 69.6945H58.2701C58.2701 65.3141 59.8368 63.5876 60.8919 63.5876ZM81.6125 67.5523C81.1329 64.259 79.1505 63.4917 76.7525 63.4917H69.3347V63.5556C70.9653 64.4189 71.0293 65.6978 71.0293 67.3924V75.5776C71.0293 77.2722 70.9653 78.5512 69.3347 79.4144V79.4784H77.2641V79.4144C75.6334 78.5512 75.5695 77.2722 75.5695 75.5776V63.8753H75.6334C77.1682 63.8753 77.9355 66.5611 77.7757 69.6625L81.6125 67.5523ZM100.402 74.5545L96.3737 68.1598C99.5711 67.4564 101.266 65.5699 101.266 63.108C101.266 59.0473 97.6207 57.097 94.3594 57.097H82.9768V57.1609C84.4476 57.8323 85.3748 59.3031 85.3748 60.9977V75.5776C85.3748 77.2722 84.4476 78.743 82.9768 79.4144V79.4784H92.7607V79.4144C91.2899 78.743 90.3947 77.2722 90.3947 75.5776V68.3197C91.4498 68.4156 91.7056 69.087 93.2723 72.0286L97.6526 79.4784H104.335V79.4144C103.248 78.8389 102.097 77.2403 100.402 74.5545ZM90.9702 57.5446C93.7839 57.5446 96.1179 60.0705 96.1179 63.4597C96.1179 66.8169 94.1995 68.0639 92.1532 68.0639C91.5457 68.0639 90.9382 68.0319 90.3947 67.936V57.5446H90.9702ZM117.765 75.5776V67.0087C117.765 64.9944 116.71 63.2678 113.545 63.2678C111.658 63.2678 109.804 63.5556 108.365 63.8114L105.711 67.3604L105.775 67.4244C106.926 66.4012 109.836 63.7794 111.562 63.7794C112.777 63.7794 113.417 64.8985 113.417 66.2414C113.417 68.1278 112.298 68.9911 109.228 70.8136C106.447 72.4442 105.04 73.4674 105.04 75.8334C105.04 77.528 106.255 79.6383 109.1 79.6383C110.539 79.6383 112.266 78.4233 113.289 77.56V79.4784H119.46V79.4144C117.829 78.5512 117.765 77.2722 117.765 75.5776ZM111.498 78.0716C110.507 78.0716 109.324 76.7607 109.324 74.8103C109.324 71.517 110.124 71.0374 113.289 68.4475V75.8974C113.289 77.2722 112.49 78.0716 111.498 78.0716ZM133.012 67.5523C132.532 64.259 130.55 63.4917 128.152 63.4917H120.734V63.5556C122.365 64.4189 122.429 65.6978 122.429 67.3924V75.5776C122.429 77.2722 122.365 78.5512 120.734 79.4144V79.4784H128.663V79.4144C127.033 78.5512 126.969 77.2722 126.969 75.5776V63.8753H127.033C128.568 63.8753 129.335 66.5611 129.175 69.6625L133.012 67.5523ZM143.428 76.1851C141.254 76.1851 138.632 74.5865 138.472 70.1421H148C147.745 65.7618 145.027 63.2039 141.766 63.2039C138.376 63.2039 134.412 65.9536 134.412 71.517C134.412 77.1763 138.089 79.7662 141.382 79.7662C144.771 79.7662 146.945 76.7607 147.745 74.1708L147.681 74.1388C146.37 75.4178 144.771 76.1851 143.428 76.1851ZM141.094 63.5876C142.565 63.5876 143.684 66.0495 143.812 69.6945H138.472C138.472 65.3141 140.039 63.5876 141.094 63.5876Z" fill="black"/>
<line x1="70.4087" y1="35.9423" x2="77.9356" y2="43.4692" stroke="black" stroke-width="0.561881"/>
<line y1="-0.280941" x2="10.6446" y2="-0.280941" transform="matrix(-0.707107 0.707107 0.707107 0.707107 77.7375 36.141)" stroke="black" stroke-width="0.561881"/>
</svg>
