<svg width="186" height="83" viewBox="0 0 186 83" fill="none" xmlns="http://www.w3.org/2000/svg">
<rect x="0.462687" y="0.462687" width="50.8955" height="81.1244" rx="9.71642" fill="#F1F1F1" stroke="black" stroke-width="0.925373"/>
<path d="M0.925781 34.2388C0.925781 31.1723 3.4116 28.6865 6.47802 28.6865H45.3437C48.4101 28.6865 50.8959 31.1723 50.8959 34.2388V73.1044C50.8959 77.7041 47.1672 81.4328 42.5676 81.4328H9.25415C4.65452 81.4328 0.925781 77.7041 0.925781 73.1044V34.2388Z" fill="white"/>
<rect x="0.462687" y="0.462687" width="50.8955" height="81.1244" rx="9.71642" stroke="black" stroke-width="0.925373"/>
<rect x="5.75781" y="65.2903" width="40.3051" height="10.0763" rx="5.03814" fill="#BDBDBD"/>
<rect x="5.55273" y="52.7463" width="40.7164" height="5.55224" rx="2.77612" fill="#F1F1F1"/>
<rect x="5.55273" y="44.418" width="40.7164" height="5.55224" rx="2.77612" fill="#F1F1F1"/>
<rect x="5.55273" y="36.0896" width="40.7164" height="5.55224" rx="2.77612" fill="#F1F1F1"/>
<rect x="79.1189" y="9.46269" width="106.418" height="64.7761" rx="4.16418" fill="#F1F1F1" stroke="black" stroke-width="0.925373"/>
<path d="M147.135 14.5523C147.135 12.508 148.792 10.8508 150.836 10.8508H180.448C182.492 10.8508 184.15 12.508 184.15 14.5523V47.8658C184.15 49.91 182.492 51.5672 180.448 51.5672H150.836C148.792 51.5672 147.135 49.91 147.135 47.8658V14.5523Z" fill="white"/>
<rect x="149.91" y="41.3881" width="31.4627" height="7.40299" rx="3.70149" fill="#BDBDBD"/>
<rect x="149.91" y="30.2836" width="31.4627" height="3.70149" rx="1.85075" fill="#F1F1F1"/>
<rect x="149.91" y="23.806" width="31.4627" height="3.70149" rx="1.85075" fill="#F1F1F1"/>
<rect x="149.91" y="17.3284" width="31.4627" height="3.70149" rx="1.85075" fill="#F1F1F1"/>
</svg>
