<svg width="72" height="114" viewBox="0 0 72 114" fill="none" xmlns="http://www.w3.org/2000/svg">
<rect x="0.462687" y="0.462687" width="71.0746" height="113.075" rx="11.5373" fill="#F1F1F1" stroke="black" stroke-width="0.925373"/>
<path d="M1.28516 45.4097C1.28516 42.3432 3.77098 39.8574 6.8374 39.8574H65.1615C68.2279 39.8574 70.7137 42.3432 70.7137 45.4097V104.815C70.7137 109.414 66.985 113.143 62.3854 113.143H9.61352C5.0139 113.143 1.28516 109.414 1.28516 104.815V45.4097Z" fill="white"/>
<rect x="0.462687" y="0.462687" width="71.0746" height="113.075" rx="11.5373" stroke="black" stroke-width="0.925373"/>
<rect x="8" y="90.7129" width="56" height="14" rx="7" fill="#BDBDBD"/>
<rect x="7.7168" y="73.2861" width="56.5714" height="7.71429" rx="3.85714" fill="#F1F1F1"/>
<rect x="7.7168" y="61.7139" width="56.5714" height="7.71429" rx="3.85714" fill="#F1F1F1"/>
<rect x="7.7168" y="50.1436" width="56.5714" height="7.71429" rx="3.85714" fill="#F1F1F1"/>
</svg>
