<svg width="14" height="14" viewBox="0 0 14 14" fill="none" xmlns="http://www.w3.org/2000/svg">
<path d="M7.46033 12.0298C7.7239 12.2934 7.7239 12.7221 7.46033 12.9856L6.69221 13.7537C6.5645 13.8813 6.39479 13.9516 6.21434 13.9516C6.0339 13.9516 5.8642 13.8813 5.73648 13.7537C5.47291 13.4901 5.47291 13.0614 5.73648 12.7979L6.5046 12.0298C6.63633 11.8981 6.80952 11.8322 6.98246 11.8322C7.15543 11.8322 7.32861 11.898 7.46033 12.0298ZM5.7662 10.616C5.59302 10.616 5.42006 10.6817 5.28834 10.8136L4.52022 11.5817C4.38849 11.7134 4.32262 11.8866 4.32262 12.0596C4.32262 12.2327 4.38838 12.4057 4.52022 12.5374C4.64782 12.665 4.81753 12.7354 4.99808 12.7354C5.17864 12.7354 5.34834 12.6651 5.47595 12.5374L6.24407 11.7693C6.50763 11.5057 6.50763 11.077 6.24407 10.8136C6.11223 10.6817 5.93915 10.616 5.7662 10.616ZM4.54972 9.3995C4.37675 9.3995 4.20358 9.46525 4.07185 9.59709L3.30373 10.3652C3.04017 10.6288 3.04017 11.0575 3.30373 11.3209C3.5673 11.5845 3.99602 11.5845 4.25946 11.3209L5.02758 10.5528C5.29115 10.2893 5.29115 9.86054 5.02758 9.59698C4.89596 9.46547 4.72289 9.39949 4.54972 9.39949V9.3995ZM3.33357 8.18335C3.16039 8.18335 2.98742 8.2491 2.8557 8.38094L2.20456 9.03208C2.19783 9.04142 2.19045 9.05031 2.18188 9.05834C2.17548 9.06442 2.16864 9.06985 2.1617 9.07495L2.08769 9.14895C1.96009 9.27656 1.88977 9.44626 1.88977 9.62681C1.88977 9.80737 1.96009 9.97696 2.08769 10.1047C2.35126 10.3682 2.77998 10.3682 3.04342 10.1047L3.81154 9.33656C4.07511 9.073 4.07511 8.64428 3.81154 8.38083C3.6797 8.2491 3.50654 8.18335 3.33357 8.18335L3.33357 8.18335ZM12.3406 8.51265C12.3363 8.50972 12.3319 8.50658 12.3277 8.50321C12.3129 8.49139 12.3007 8.4775 12.2905 8.46263L9.0221 5.19427C8.94897 5.12114 8.85175 5.08088 8.74845 5.08088C8.64504 5.08088 8.54781 5.12114 8.47468 5.19427L7.544 6.12495C7.21597 6.45298 6.77977 6.63362 6.31569 6.63362C5.85171 6.63362 5.41551 6.45306 5.08737 6.12495C4.75934 5.79691 4.5787 5.36072 4.5787 4.89663C4.5787 4.43276 4.75925 3.99645 5.08737 3.66831L6.74091 2.01477C6.56524 1.8404 6.38066 1.68013 6.19024 1.53732C5.30418 0.872924 4.29775 0.59906 3.27966 0.745422C2.10895 0.91361 1.10028 1.60568 0.512492 2.64388C-0.0910412 3.70987 -0.165153 4.96888 0.309474 6.09808C0.658116 6.93012 1.24534 7.79113 2.05591 8.6593L2.59508 8.12013C2.79235 7.92286 3.05439 7.81435 3.33347 7.81435C3.61234 7.81435 3.87459 7.92308 4.07187 8.12013C4.26914 8.3174 4.37765 8.57966 4.37765 8.85853C4.37765 8.92298 4.37179 8.98624 4.36051 9.04831C4.6869 8.98874 5.03629 9.08466 5.28815 9.3365C5.48542 9.53377 5.59394 9.79603 5.59394 10.0749C5.59394 10.1394 5.58818 10.2026 5.57679 10.2647C5.90318 10.2049 6.25269 10.301 6.50444 10.5529C6.75639 10.8048 6.85241 11.1545 6.79252 11.4811C7.11903 11.4212 7.46886 11.5172 7.72092 11.7691C8.10395 12.1522 8.12662 12.7608 7.78917 13.1707L7.81467 13.1964C8.07824 13.46 8.50707 13.46 8.77051 13.1964C9.03386 12.9331 9.03408 12.5045 8.77084 12.241C8.77073 12.241 8.77051 12.2409 8.77051 12.2407L6.79383 10.2637C6.72178 10.1918 6.72178 10.0751 6.79383 10.0033C6.86566 9.93121 6.98242 9.93121 7.05425 10.0033L8.64649 11.5955C8.64659 11.5956 8.64692 11.5958 8.64714 11.5961L9.03125 11.9803C9.03136 11.9803 9.03158 11.9804 9.03158 11.9806C9.29514 12.2438 9.72364 12.2436 9.987 11.9803C10.2506 11.7167 10.2506 11.288 9.987 11.0245L8.00998 9.0474C7.93815 8.97535 7.93815 8.85871 8.00998 8.78687C8.08203 8.71504 8.19868 8.71504 8.27051 8.78687L9.86308 10.3794L9.86319 10.3796L10.2473 10.7637C10.5109 11.0272 10.9396 11.0272 11.203 10.7637C11.4666 10.5001 11.4666 10.0714 11.203 9.80794L10.8189 9.42382L9.22646 7.83103C9.15463 7.7592 9.15463 7.64244 9.22646 7.57061C9.29851 7.49856 9.41505 7.49856 9.48699 7.57061L11.0796 9.1634L11.4637 9.54752C11.5913 9.67513 11.761 9.74544 11.9415 9.74544H11.9427C12.1236 9.74511 12.2937 9.67415 12.4213 9.54567C12.6829 9.28211 12.6792 8.85122 12.4129 8.58494L12.3406 8.51265ZM10.7204 0.745637C9.70243 0.599369 8.69581 0.873244 7.8095 1.53776C7.57382 1.7143 7.34661 1.91807 7.13394 2.14323C7.13318 2.14399 7.13253 2.14464 7.13177 2.1453C7.13133 2.14595 7.13068 2.14649 7.13025 2.14703L5.34812 3.92905C4.81459 4.46258 4.81459 5.33098 5.34812 5.86451C5.88165 6.39804 6.75005 6.39804 7.28358 5.86451L8.21426 4.93384C8.35705 4.79115 8.54673 4.71259 8.74854 4.71259C8.95026 4.71259 9.14004 4.79115 9.28271 4.93384L12.4297 8.08109C12.8827 7.50208 13.4411 6.69338 13.6908 6.09887C14.1651 4.96875 14.091 3.70952 13.4871 2.64356C12.8995 1.60547 11.891 0.913742 10.7203 0.745546L10.7204 0.745637Z" fill="black"/>
</svg>
