<svg width="178" height="48" viewBox="0 0 178 48" fill="none" xmlns="http://www.w3.org/2000/svg">
<rect x="0.5" y="0.5" width="177" height="47" fill="white" stroke="#C2C9D1" stroke-dasharray="2 2"/>
<path d="M31.1668 18.1667H28.8335V22.8333H24.1668V25.1667H28.8335V29.8333H31.1668V25.1667H35.8335V22.8333H31.1668V18.1667ZM30.0002 12.3333C23.5602 12.3333 18.3335 17.56 18.3335 24C18.3335 30.44 23.5602 35.6667 30.0002 35.6667C36.4402 35.6667 41.6668 30.44 41.6668 24C41.6668 17.56 36.4402 12.3333 30.0002 12.3333ZM30.0002 33.3333C24.8552 33.3333 20.6668 29.145 20.6668 24C20.6668 18.855 24.8552 14.6667 30.0002 14.6667C35.1452 14.6667 39.3335 18.855 39.3335 24C39.3335 29.145 35.1452 33.3333 30.0002 33.3333Z" fill="#C2C9D1"/>
<path d="M31.1668 18.1667H28.8335V22.8333H24.1668V25.1667H28.8335V29.8333H31.1668V25.1667H35.8335V22.8333H31.1668V18.1667ZM30.0002 12.3333C23.5602 12.3333 18.3335 17.56 18.3335 24C18.3335 30.44 23.5602 35.6667 30.0002 35.6667C36.4402 35.6667 41.6668 30.44 41.6668 24C41.6668 17.56 36.4402 12.3333 30.0002 12.3333ZM30.0002 33.3333C24.8552 33.3333 20.6668 29.145 20.6668 24C20.6668 18.855 24.8552 14.6667 30.0002 14.6667C35.1452 14.6667 39.3335 18.855 39.3335 24C39.3335 29.145 35.1452 33.3333 30.0002 33.3333Z" fill="black" fill-opacity="0.25"/>
<path d="M52.0384 18.92L47.9264 29H49.2864L50.4704 26.04H55.0624L56.2784 29H57.7504L53.5584 18.92H52.0384ZM52.7104 20.456H52.7744L54.6144 24.936H50.9024L52.7104 20.456ZM64.0358 25.704C64.0358 27.24 63.0758 28.136 61.8118 28.136C60.4358 28.136 59.6678 27.112 59.6678 25.512C59.6678 23.912 60.4358 22.888 61.8118 22.888C63.0758 22.888 64.0358 23.784 64.0358 25.304V25.704ZM64.0198 29H65.3478V18.92H64.0198V23.48C63.6998 22.616 62.8198 21.816 61.5078 21.816C59.4278 21.816 58.3078 23.448 58.3078 25.512C58.3078 27.576 59.4278 29.192 61.5078 29.192C62.8198 29.192 63.6998 28.408 64.0198 27.544V29ZM72.442 25.704C72.442 27.24 71.482 28.136 70.218 28.136C68.842 28.136 68.074 27.112 68.074 25.512C68.074 23.912 68.842 22.888 70.218 22.888C71.482 22.888 72.442 23.784 72.442 25.304V25.704ZM72.426 29H73.754V18.92H72.426V23.48C72.106 22.616 71.226 21.816 69.914 21.816C67.834 21.816 66.714 23.448 66.714 25.512C66.714 27.576 67.834 29.192 69.914 29.192C71.226 29.192 72.106 28.408 72.426 27.544V29ZM84.2833 23.336C83.9793 22.424 83.2433 21.816 81.9953 21.816C80.9233 21.816 80.1073 22.408 79.7713 23.256V22.008H78.4433V29H79.7713V24.984C79.7713 23.704 80.5553 22.872 81.5473 22.872C82.6193 22.872 83.0993 23.608 83.0993 24.776V29H84.4273V24.984C84.4273 23.704 85.2273 22.872 86.2193 22.872C87.2913 22.872 87.7713 23.608 87.7713 24.776V29H89.0993V24.664C89.0993 23.08 88.4593 21.816 86.6353 21.816C85.5153 21.816 84.6513 22.472 84.2833 23.336ZM91.7615 25.512C91.7615 23.944 92.5455 22.856 93.9535 22.856C95.3775 22.856 96.1775 23.944 96.1775 25.512C96.1775 27.064 95.3775 28.168 93.9535 28.168C92.5455 28.168 91.7615 27.064 91.7615 25.512ZM97.5375 25.512C97.5375 23.336 96.0175 21.816 93.9535 21.816C91.9055 21.816 90.4015 23.336 90.4015 25.512C90.4015 27.688 91.9055 29.192 93.9535 29.192C96.0175 29.192 97.5375 27.688 97.5375 25.512ZM103.216 22.136C102.976 21.928 102.656 21.816 102.224 21.816C101.216 21.816 100.496 22.632 100.24 23.432V22.008H98.912V29H100.24V25.304C100.24 23.96 100.992 23.048 102 23.048C102.432 23.048 102.704 23.128 103.088 23.336L103.216 22.136ZM109.318 26.52C109.03 27.592 108.342 28.152 107.174 28.152C105.926 28.152 104.95 27.192 104.886 25.832H110.454V25.304C110.454 23.4 109.318 21.816 107.094 21.816C105.078 21.816 103.558 23.4 103.558 25.608C103.558 27.784 105.078 29.192 107.158 29.192C108.902 29.192 110.07 28.232 110.422 26.648L109.318 26.52ZM104.918 24.968C105.078 23.816 105.83 22.824 107.094 22.824C108.422 22.824 109.046 23.848 109.094 24.968H104.918ZM119.061 25.88C119.061 27.288 118.117 28.216 116.885 28.216C116.085 28.216 115.685 27.768 115.685 27.176C115.685 26.328 116.389 26.12 117.493 25.88L119.061 25.544V25.88ZM120.341 24.488C120.341 22.712 119.301 21.816 117.541 21.816C115.893 21.816 114.853 22.776 114.581 24.088L115.765 24.248C115.973 23.432 116.517 22.84 117.525 22.84C118.501 22.84 119.061 23.432 119.061 24.392V24.664L117.173 25.048C115.493 25.384 114.357 25.928 114.357 27.256C114.357 28.456 115.237 29.192 116.597 29.192C117.733 29.192 118.725 28.584 119.109 27.768C119.189 28.6 119.701 29.144 120.421 29.144C120.965 29.144 121.253 28.968 121.493 28.728V28.008C121.301 28.12 121.045 28.168 120.885 28.168C120.549 28.168 120.341 27.992 120.341 27.624V24.488ZM126.841 22.136C126.601 21.928 126.281 21.816 125.849 21.816C124.841 21.816 124.121 22.632 123.865 23.432V22.008H122.537V29H123.865V25.304C123.865 23.96 124.617 23.048 125.625 23.048C126.057 23.048 126.329 23.128 126.713 23.336L126.841 22.136ZM128.261 27.368C128.261 28.728 128.965 29.192 129.957 29.192C130.725 29.192 131.237 28.984 131.749 28.6V27.704C131.349 27.928 130.885 28.12 130.437 28.12C129.829 28.12 129.573 27.832 129.573 27.208V22.968H131.541V22.008H129.573V20.072H128.821L128.613 21.048C128.453 21.72 128.309 22.04 127.653 22.168L127.205 22.248V22.968H128.261V27.368ZM137.744 22.008H136.624L135.152 27.304H135.088L133.44 22.008H132.112L134.352 29H135.632L137.104 23.784H137.168L138.656 29H139.936L142.16 22.008H140.928L139.312 27.304H139.248L137.744 22.008ZM144.074 25.512C144.074 23.944 144.858 22.856 146.266 22.856C147.69 22.856 148.49 23.944 148.49 25.512C148.49 27.064 147.69 28.168 146.266 28.168C144.858 28.168 144.074 27.064 144.074 25.512ZM149.85 25.512C149.85 23.336 148.33 21.816 146.266 21.816C144.218 21.816 142.714 23.336 142.714 25.512C142.714 27.688 144.218 29.192 146.266 29.192C148.33 29.192 149.85 27.688 149.85 25.512ZM155.529 22.136C155.289 21.928 154.969 21.816 154.536 21.816C153.529 21.816 152.809 22.632 152.553 23.432V22.008H151.225V29H152.553V25.304C152.553 23.96 153.305 23.048 154.312 23.048C154.745 23.048 155.016 23.128 155.401 23.336L155.529 22.136ZM157.849 26.472L158.825 25.608L161.609 29H163.177L159.817 24.872L163.033 22.008H161.369L157.849 25.176V18.92H156.521V29H157.849V26.472Z" fill="#666666"/>
</svg>
