<svg width="20" height="20" viewBox="0 0 20 20" fill="none" xmlns="http://www.w3.org/2000/svg">
<path d="M9.9915 1.66666C5.3915 1.66666 1.6665 5.4 1.6665 10C1.6665 14.6 5.3915 18.3333 9.9915 18.3333C14.5998 18.3333 18.3332 14.6 18.3332 10C18.3332 5.4 14.5998 1.66666 9.9915 1.66666ZM9.99984 16.6667C6.3165 16.6667 3.33317 13.6833 3.33317 10C3.33317 6.31666 6.3165 3.33333 9.99984 3.33333C13.6832 3.33333 16.6665 6.31666 16.6665 10C16.6665 13.6833 13.6832 16.6667 9.99984 16.6667Z" fill="#FFAF0F"/>
<path d="M10.4165 5.83334H9.1665V10.8333L13.5415 13.4583L14.1665 12.4333L10.4165 10.2083V5.83334Z" fill="#FFAF0F"/>
</svg>
