<svg width="20" height="20" viewBox="0 0 20 20" fill="none" xmlns="http://www.w3.org/2000/svg">
<path d="M9.99984 1.66669C5.39984 1.66669 1.6665 5.40002 1.6665 10C1.6665 14.6 5.39984 18.3334 9.99984 18.3334C14.5998 18.3334 18.3332 14.6 18.3332 10C18.3332 5.40002 14.5998 1.66669 9.99984 1.66669ZM8.33317 14.1667L4.1665 10L5.3415 8.82502L8.33317 11.8084L14.6582 5.48335L15.8332 6.66669L8.33317 14.1667Z" fill="#C2C9D1"/>
<path d="M9.99984 1.66669C5.39984 1.66669 1.6665 5.40002 1.6665 10C1.6665 14.6 5.39984 18.3334 9.99984 18.3334C14.5998 18.3334 18.3332 14.6 18.3332 10C18.3332 5.40002 14.5998 1.66669 9.99984 1.66669ZM8.33317 14.1667L4.1665 10L5.3415 8.82502L8.33317 11.8084L14.6582 5.48335L15.8332 6.66669L8.33317 14.1667Z" fill="black" fill-opacity="0.5"/>
</svg>
