<svg width="20" height="20" viewBox="0 0 20 20" fill="none" xmlns="http://www.w3.org/2000/svg">
<path d="M9.1665 12.5H10.8332V14.1667H9.1665V12.5ZM9.1665 5.83334H10.8332V10.8333H9.1665V5.83334ZM9.9915 1.66667C5.3915 1.66667 1.6665 5.40001 1.6665 10C1.6665 14.6 5.3915 18.3333 9.9915 18.3333C14.5998 18.3333 18.3332 14.6 18.3332 10C18.3332 5.40001 14.5998 1.66667 9.9915 1.66667ZM9.99984 16.6667C6.3165 16.6667 3.33317 13.6833 3.33317 10C3.33317 6.31667 6.3165 3.33334 9.99984 3.33334C13.6832 3.33334 16.6665 6.31667 16.6665 10C16.6665 13.6833 13.6832 16.6667 9.99984 16.6667Z" fill="#005C3A"/>
<path d="M9.1665 12.5H10.8332V14.1667H9.1665V12.5ZM9.1665 5.83334H10.8332V10.8333H9.1665V5.83334ZM9.9915 1.66667C5.3915 1.66667 1.6665 5.40001 1.6665 10C1.6665 14.6 5.3915 18.3333 9.9915 18.3333C14.5998 18.3333 18.3332 14.6 18.3332 10C18.3332 5.40001 14.5998 1.66667 9.9915 1.66667ZM9.99984 16.6667C6.3165 16.6667 3.33317 13.6833 3.33317 10C3.33317 6.31667 6.3165 3.33334 9.99984 3.33334C13.6832 3.33334 16.6665 6.31667 16.6665 10C16.6665 13.6833 13.6832 16.6667 9.99984 16.6667Z" fill="black" fill-opacity="0.5"/>
</svg>
