<svg width="20" height="20" viewBox="0 0 20 20" fill="none" xmlns="http://www.w3.org/2000/svg">
<path d="M9.1665 12.5H10.8332V14.1667H9.1665V12.5ZM9.1665 5.83335H10.8332V10.8334H9.1665V5.83335ZM9.9915 1.66669C5.3915 1.66669 1.6665 5.40002 1.6665 10C1.6665 14.6 5.3915 18.3334 9.9915 18.3334C14.5998 18.3334 18.3332 14.6 18.3332 10C18.3332 5.40002 14.5998 1.66669 9.9915 1.66669ZM9.99984 16.6667C6.3165 16.6667 3.33317 13.6834 3.33317 10C3.33317 6.31669 6.3165 3.33335 9.99984 3.33335C13.6832 3.33335 16.6665 6.31669 16.6665 10C16.6665 13.6834 13.6832 16.6667 9.99984 16.6667Z" fill="#4D4D4D"/>
</svg>
