<svg width="42" height="42" viewBox="0 0 42 42" fill="none" xmlns="http://www.w3.org/2000/svg">
<path d="M18.9165 27.25H23.0832V31.4167H18.9165V27.25ZM18.9165 10.5834H23.0832V23.0834H18.9165V10.5834ZM20.979 0.166687C9.479 0.166687 0.166504 9.50002 0.166504 21C0.166504 32.5 9.479 41.8334 20.979 41.8334C32.4998 41.8334 41.8332 32.5 41.8332 21C41.8332 9.50002 32.4998 0.166687 20.979 0.166687ZM20.9998 37.6667C11.7915 37.6667 4.33317 30.2084 4.33317 21C4.33317 11.7917 11.7915 4.33335 20.9998 4.33335C30.2082 4.33335 37.6665 11.7917 37.6665 21C37.6665 30.2084 30.2082 37.6667 20.9998 37.6667Z" fill="#C2C9D1"/>
</svg>
