<svg width="176" height="108" viewBox="0 0 176 108" fill="none" xmlns="http://www.w3.org/2000/svg">
<rect y="18" width="97" height="78" fill="#C2C9D1"/>
<path d="M46.4439 50.842H48.6859V60H50.3389V47.954H49.2559C48.8189 49.208 48.1159 49.778 46.4439 49.778V50.842Z" fill="white"/>
<rect x="109" width="67" height="54" fill="#C2C9D1"/>
<path d="M140.04 29.575L142.301 27.713C144.03 26.288 145.873 24.635 145.873 22.469C145.873 20.436 144.6 18.802 141.807 18.802C139.261 18.802 137.608 20.379 137.608 22.83C137.608 23.191 137.665 23.571 137.741 23.951L139.375 24.027C139.28 23.666 139.242 23.305 139.242 22.944C139.242 21.196 140.154 20.151 141.788 20.151C143.365 20.151 144.163 21.139 144.163 22.545C144.163 24.293 142.757 25.509 140.876 27.143L137.494 30.05V31H146.291V29.575H140.04Z" fill="white"/>
<rect x="109" y="66" width="67" height="42" fill="#C2C9D1"/>
<path d="M144.676 89.713C144.676 91.138 143.593 91.898 142.035 91.898C140.23 91.898 139.071 90.929 139.033 89.029L137.418 88.953C137.418 91.613 139.166 93.228 142.016 93.228C144.657 93.228 146.329 91.822 146.329 89.827C146.329 88.269 145.227 87.167 143.764 86.958C144.942 86.768 146.082 85.723 146.082 84.184C146.082 82.17 144.619 80.802 141.978 80.802C139.28 80.802 137.627 82.607 137.627 85.077L139.223 85.134C139.223 83.234 140.268 82.132 141.959 82.132C143.612 82.132 144.448 83.025 144.448 84.317C144.448 85.856 143.289 86.369 142.035 86.369C141.503 86.369 141.161 86.35 140.895 86.312V87.661C141.18 87.623 141.56 87.604 142.035 87.604C143.536 87.604 144.676 88.345 144.676 89.713Z" fill="white"/>
</svg>
