<svg width="176" height="98" viewBox="0 0 176 98" fill="none" xmlns="http://www.w3.org/2000/svg">
<rect y="29" width="97" height="69" fill="#C2C9D1"/>
<rect x="109" width="67" height="86" fill="#C2C9D1"/>
<path d="M140.04 47.575L142.301 45.713C144.03 44.288 145.873 42.635 145.873 40.469C145.873 38.436 144.6 36.802 141.807 36.802C139.261 36.802 137.608 38.379 137.608 40.83C137.608 41.191 137.665 41.571 137.741 41.951L139.375 42.027C139.28 41.666 139.242 41.305 139.242 40.944C139.242 39.196 140.154 38.151 141.788 38.151C143.365 38.151 144.163 39.139 144.163 40.545C144.163 42.293 142.757 43.509 140.876 45.143L137.494 48.05V49H146.291V47.575H140.04Z" fill="white"/>
<path d="M45.4439 58.842H47.6859V68H49.3389V55.954H48.2559C47.8189 57.208 47.1159 57.778 45.4439 57.778V58.842Z" fill="white"/>
</svg>
