<svg width="472" height="38" viewBox="0 0 472 38" fill="none" xmlns="http://www.w3.org/2000/svg">
<rect y="6" width="346" height="32" fill="#808080"/>
<path d="M13.3138 6.53606e-06L8.56315 6.56302L18.0645 6.56302L13.3138 6.53606e-06Z" fill="#808080"/>
<path d="M10.77 17.18V26H12.52V17.18H10.77ZM19.6226 20.932C19.3566 20.176 18.7406 19.658 17.6486 19.658C16.7106 19.658 16.0106 20.134 15.7026 20.834V19.826H14.0226V26H15.7026V22.696C15.7026 21.66 16.1926 20.988 17.0046 20.988C17.8166 20.988 18.1246 21.534 18.1246 22.486V26H19.8046V22.696C19.8046 21.66 20.2946 20.988 21.1066 20.988C21.9326 20.988 22.2266 21.534 22.2266 22.486V26H23.9066V22.15C23.9066 20.806 23.3746 19.658 21.7086 19.658C20.7006 19.658 19.9586 20.204 19.6226 20.932ZM28.9572 23.326C28.9572 24.32 28.2852 24.992 27.4032 24.992C26.8712 24.992 26.5492 24.74 26.5492 24.32C26.5492 23.704 27.0672 23.578 27.7952 23.424L28.9572 23.172V23.326ZM30.5952 22.038C30.5952 20.414 29.5452 19.658 27.9492 19.658C26.3112 19.658 25.3452 20.54 25.1352 21.8L26.6612 21.94C26.8012 21.338 27.1792 20.918 27.8792 20.918C28.5932 20.918 28.9572 21.338 28.9572 22.024V22.164L27.2632 22.5C25.8632 22.78 24.9112 23.27 24.9112 24.446C24.9112 25.51 25.6952 26.154 26.9832 26.154C27.8932 26.154 28.7332 25.776 29.0832 25.062C29.2372 25.734 29.6852 26.14 30.3852 26.14C30.9452 26.14 31.2812 25.958 31.5472 25.748V24.852C31.3652 24.936 31.1972 24.978 31.0292 24.978C30.7632 24.978 30.5952 24.824 30.5952 24.502V22.038ZM37.8299 21.772C37.8299 21.422 37.7319 21.1 37.5639 20.834C37.8859 20.722 38.2919 20.666 38.6279 20.666V19.322C37.9559 19.322 37.3399 19.714 36.9899 20.204C36.4859 19.854 35.7859 19.658 35.0299 19.658C33.4059 19.658 32.2439 20.456 32.2439 21.772C32.2439 22.444 32.5659 22.99 33.0979 23.354C32.4959 23.592 32.1039 24.012 32.1039 24.572C32.1039 25.076 32.3979 25.524 32.9579 25.706C32.2299 25.804 31.7259 26.252 31.7259 26.882C31.7259 28.03 33.1819 28.464 34.8899 28.464C36.8079 28.464 38.5999 27.82 38.5999 26.28C38.5999 25.286 37.8999 24.544 36.5279 24.544H34.0639C33.6019 24.544 33.4199 24.362 33.4199 24.082C33.4199 23.886 33.5179 23.732 33.6719 23.634C34.0639 23.788 34.5259 23.858 35.0299 23.858C36.6539 23.858 37.8299 23.06 37.8299 21.772ZM33.2519 26.63C33.2519 26.182 33.6159 26 34.0639 26H36.1219C36.6819 26 37.0179 26.154 37.0179 26.56C37.0179 27.162 36.1219 27.442 34.8899 27.442C33.8959 27.442 33.2519 27.19 33.2519 26.63ZM36.1219 21.772C36.1219 22.486 35.6879 22.864 35.0439 22.864C34.4139 22.864 33.9799 22.486 33.9799 21.772C33.9799 21.058 34.4139 20.68 35.0439 20.68C35.6879 20.68 36.1219 21.058 36.1219 21.772ZM43.7555 23.844C43.5175 24.544 43.0275 24.894 42.2015 24.894C41.2915 24.894 40.5775 24.25 40.5215 23.34H45.1555V22.738C45.1555 21.058 44.1195 19.658 42.1035 19.658C40.2555 19.658 38.8695 21.058 38.8695 23.004C38.8695 24.95 40.2415 26.168 42.1455 26.168C43.7275 26.168 44.7915 25.356 45.1135 23.984L43.7555 23.844ZM40.5495 22.29C40.7035 21.52 41.1655 20.89 42.0895 20.89C43.0275 20.89 43.4615 21.576 43.5175 22.29H40.5495ZM48.7492 19.826V26H50.4292V19.826H48.7492ZM48.7212 18.818H50.4432V17.18H48.7212V18.818ZM51.391 23.956C51.503 25.468 52.735 26.168 54.345 26.168C55.941 26.168 57.033 25.468 57.033 24.208C57.033 23.046 56.263 22.5 54.961 22.29L53.785 22.094C53.337 22.024 53.113 21.828 53.113 21.492C53.113 21.072 53.505 20.806 54.107 20.806C54.989 20.806 55.465 21.156 55.577 21.856L56.963 21.8C56.851 20.428 55.829 19.658 54.121 19.658C52.553 19.658 51.559 20.47 51.559 21.646C51.559 22.794 52.287 23.284 53.603 23.494L54.583 23.662C55.199 23.76 55.479 23.942 55.479 24.362C55.479 24.81 54.975 25.02 54.359 25.02C53.505 25.02 52.945 24.642 52.847 23.9L51.391 23.956ZM64.3127 23.326C64.3127 24.32 63.6407 24.992 62.7587 24.992C62.2267 24.992 61.9047 24.74 61.9047 24.32C61.9047 23.704 62.4227 23.578 63.1507 23.424L64.3127 23.172V23.326ZM65.9507 22.038C65.9507 20.414 64.9007 19.658 63.3047 19.658C61.6667 19.658 60.7007 20.54 60.4907 21.8L62.0167 21.94C62.1567 21.338 62.5347 20.918 63.2347 20.918C63.9487 20.918 64.3127 21.338 64.3127 22.024V22.164L62.6187 22.5C61.2187 22.78 60.2667 23.27 60.2667 24.446C60.2667 25.51 61.0507 26.154 62.3387 26.154C63.2487 26.154 64.0887 25.776 64.4387 25.062C64.5927 25.734 65.0407 26.14 65.7407 26.14C66.3007 26.14 66.6367 25.958 66.9027 25.748V24.852C66.7207 24.936 66.5527 24.978 66.3847 24.978C66.1187 24.978 65.9507 24.824 65.9507 24.502V22.038ZM71.746 23.13C71.746 24.18 71.242 24.852 70.416 24.852C69.59 24.852 69.24 24.292 69.24 23.354V19.826H67.56V23.69C67.56 25.062 68.12 26.168 69.758 26.168C70.696 26.168 71.424 25.706 71.746 24.992V26H73.426V19.826H71.746V23.13ZM75.0588 24.432C75.0588 25.748 75.8568 26.168 76.8088 26.168C77.5648 26.168 78.0688 25.972 78.5168 25.636V24.53C78.1528 24.698 77.8028 24.824 77.4668 24.824C76.9628 24.824 76.7248 24.586 76.7248 24.054V21.002H78.4048V19.826H76.7248V18.118H75.7028L75.5068 18.958C75.3668 19.532 75.1988 19.84 74.5968 19.938L74.1768 20.008V21.002H75.0588V24.432ZM80.7725 22.92C80.7725 21.744 81.3045 20.932 82.3265 20.932C83.3625 20.932 83.8945 21.744 83.8945 22.92C83.8945 24.082 83.3625 24.894 82.3265 24.894C81.3045 24.894 80.7725 24.082 80.7725 22.92ZM85.5885 22.92C85.5885 21.002 84.2445 19.658 82.3265 19.658C80.4225 19.658 79.0785 21.002 79.0785 22.92C79.0785 24.838 80.4225 26.168 82.3265 26.168C84.2445 26.168 85.5885 24.838 85.5885 22.92ZM92.2476 20.932C91.9816 20.176 91.3656 19.658 90.2736 19.658C89.3356 19.658 88.6356 20.134 88.3276 20.834V19.826H86.6476V26H88.3276V22.696C88.3276 21.66 88.8176 20.988 89.6296 20.988C90.4416 20.988 90.7496 21.534 90.7496 22.486V26H92.4296V22.696C92.4296 21.66 92.9196 20.988 93.7316 20.988C94.5576 20.988 94.8516 21.534 94.8516 22.486V26H96.5316V22.15C96.5316 20.806 95.9996 19.658 94.3336 19.658C93.3256 19.658 92.5836 20.204 92.2476 20.932ZM101.582 23.326C101.582 24.32 100.91 24.992 100.028 24.992C99.4962 24.992 99.1742 24.74 99.1742 24.32C99.1742 23.704 99.6922 23.578 100.42 23.424L101.582 23.172V23.326ZM103.22 22.038C103.22 20.414 102.17 19.658 100.574 19.658C98.9362 19.658 97.9702 20.54 97.7602 21.8L99.2862 21.94C99.4262 21.338 99.8042 20.918 100.504 20.918C101.218 20.918 101.582 21.338 101.582 22.024V22.164L99.8882 22.5C98.4882 22.78 97.5362 23.27 97.5362 24.446C97.5362 25.51 98.3202 26.154 99.6082 26.154C100.518 26.154 101.358 25.776 101.708 25.062C101.862 25.734 102.31 26.14 103.01 26.14C103.57 26.14 103.906 25.958 104.172 25.748V24.852C103.99 24.936 103.822 24.978 103.654 24.978C103.388 24.978 103.22 24.824 103.22 24.502V22.038ZM105.11 24.432C105.11 25.748 105.908 26.168 106.86 26.168C107.616 26.168 108.12 25.972 108.568 25.636V24.53C108.204 24.698 107.854 24.824 107.518 24.824C107.014 24.824 106.776 24.586 106.776 24.054V21.002H108.456V19.826H106.776V18.118H105.754L105.558 18.958C105.418 19.532 105.25 19.84 104.648 19.938L104.228 20.008V21.002H105.11V24.432ZM109.521 19.826V26H111.201V19.826H109.521ZM109.493 18.818H111.215V17.18H109.493V18.818ZM112.246 22.92C112.246 24.88 113.604 26.168 115.508 26.168C117.342 26.168 118.35 24.964 118.49 23.48L117.076 23.354C116.95 24.292 116.432 24.88 115.508 24.88C114.584 24.88 113.94 24.194 113.94 22.92C113.94 21.632 114.584 20.946 115.508 20.946C116.432 20.946 116.95 21.52 117.076 22.444L118.49 22.346C118.35 20.862 117.342 19.658 115.508 19.658C113.604 19.658 112.246 20.96 112.246 22.92ZM123.238 23.326C123.238 24.32 122.566 24.992 121.684 24.992C121.152 24.992 120.83 24.74 120.83 24.32C120.83 23.704 121.348 23.578 122.076 23.424L123.238 23.172V23.326ZM124.876 22.038C124.876 20.414 123.826 19.658 122.23 19.658C120.592 19.658 119.626 20.54 119.416 21.8L120.942 21.94C121.082 21.338 121.46 20.918 122.16 20.918C122.874 20.918 123.238 21.338 123.238 22.024V22.164L121.544 22.5C120.144 22.78 119.192 23.27 119.192 24.446C119.192 25.51 119.976 26.154 121.264 26.154C122.174 26.154 123.014 25.776 123.364 25.062C123.518 25.734 123.966 26.14 124.666 26.14C125.226 26.14 125.562 25.958 125.828 25.748V24.852C125.646 24.936 125.478 24.978 125.31 24.978C125.044 24.978 124.876 24.824 124.876 24.502V22.038ZM126.624 17.18V26H128.304V17.18H126.624ZM129.714 17.18V26H131.394V17.18H129.714ZM135.394 28.296L138.936 19.826H137.298L135.632 24.04H135.576L133.896 19.826H132.132L134.694 26.028L133.742 28.296H135.394ZM141.846 22.92C141.846 24.88 143.204 26.168 145.108 26.168C146.942 26.168 147.95 24.964 148.09 23.48L146.676 23.354C146.55 24.292 146.032 24.88 145.108 24.88C144.184 24.88 143.54 24.194 143.54 22.92C143.54 21.632 144.184 20.946 145.108 20.946C146.032 20.946 146.55 21.52 146.676 22.444L148.09 22.346C147.95 20.862 146.942 19.658 145.108 19.658C143.204 19.658 141.846 20.96 141.846 22.92ZM153.398 19.91C153.216 19.756 152.908 19.658 152.53 19.658C151.676 19.658 151.032 20.302 150.808 21.002V19.826H149.128V26H150.808V22.948C150.808 21.828 151.396 21.212 152.264 21.212C152.67 21.212 152.95 21.296 153.272 21.478L153.398 19.91ZM155.366 22.92C155.366 21.744 155.898 20.932 156.92 20.932C157.956 20.932 158.488 21.744 158.488 22.92C158.488 24.082 157.956 24.894 156.92 24.894C155.898 24.894 155.366 24.082 155.366 22.92ZM160.182 22.92C160.182 21.002 158.838 19.658 156.92 19.658C155.016 19.658 153.672 21.002 153.672 22.92C153.672 24.838 155.016 26.168 156.92 26.168C158.838 26.168 160.182 24.838 160.182 22.92ZM162.907 22.794C162.907 21.674 163.579 20.974 164.531 20.974C165.595 20.974 166.141 21.744 166.141 22.92C166.141 24.082 165.595 24.852 164.531 24.852C163.579 24.852 162.907 24.166 162.907 23.032V22.794ZM162.921 24.824C163.201 25.566 163.943 26.168 165.049 26.168C166.869 26.168 167.835 24.74 167.835 22.92C167.835 21.1 166.869 19.658 165.049 19.658C163.943 19.658 163.201 20.26 162.921 21.016V19.826H161.241V28.296H162.921V24.824ZM170.564 22.794C170.564 21.674 171.236 20.974 172.188 20.974C173.252 20.974 173.798 21.744 173.798 22.92C173.798 24.082 173.252 24.852 172.188 24.852C171.236 24.852 170.564 24.166 170.564 23.032V22.794ZM170.578 24.824C170.858 25.566 171.6 26.168 172.706 26.168C174.526 26.168 175.492 24.74 175.492 22.92C175.492 21.1 174.526 19.658 172.706 19.658C171.6 19.658 170.858 20.26 170.578 21.016V19.826H168.898V28.296H170.578V24.824ZM181.117 23.844C180.879 24.544 180.389 24.894 179.563 24.894C178.653 24.894 177.939 24.25 177.883 23.34H182.517V22.738C182.517 21.058 181.481 19.658 179.465 19.658C177.617 19.658 176.231 21.058 176.231 23.004C176.231 24.95 177.603 26.168 179.507 26.168C181.089 26.168 182.153 25.356 182.475 23.984L181.117 23.844ZM177.911 22.29C178.065 21.52 178.527 20.89 179.451 20.89C180.389 20.89 180.823 21.576 180.879 22.29H177.911ZM188.214 23.032C188.214 24.166 187.528 24.852 186.576 24.852C185.526 24.852 184.98 24.082 184.98 22.92C184.98 21.744 185.526 20.974 186.576 20.974C187.528 20.974 188.214 21.674 188.214 22.794V23.032ZM188.2 26H189.88V17.18H188.2V21.016C187.92 20.26 187.164 19.658 186.072 19.658C184.238 19.658 183.286 21.1 183.286 22.92C183.286 24.74 184.238 26.168 186.072 26.168C187.164 26.168 187.92 25.566 188.2 24.824V26ZM193.248 19.644H194.9V26H196.65V17.152H195.362C195.04 18.076 194.48 18.496 193.248 18.496V19.644ZM198.054 26H199.93V24.124H198.054V26ZM198.054 21.898H199.93V20.022H198.054V21.898ZM200.562 19.644H202.214V26H203.964V17.152H202.676C202.354 18.076 201.794 18.496 200.562 18.496V19.644ZM205.328 26H206.168C206.168 26.588 205.916 26.826 205.328 26.854V27.736C206.658 27.708 207.204 27.092 207.204 25.916V24.124H205.328V26ZM214.621 23.326C214.621 24.32 213.949 24.992 213.067 24.992C212.535 24.992 212.213 24.74 212.213 24.32C212.213 23.704 212.731 23.578 213.459 23.424L214.621 23.172V23.326ZM216.259 22.038C216.259 20.414 215.209 19.658 213.613 19.658C211.975 19.658 211.009 20.54 210.799 21.8L212.325 21.94C212.465 21.338 212.843 20.918 213.543 20.918C214.257 20.918 214.621 21.338 214.621 22.024V22.164L212.927 22.5C211.527 22.78 210.575 23.27 210.575 24.446C210.575 25.51 211.359 26.154 212.647 26.154C213.557 26.154 214.397 25.776 214.747 25.062C214.901 25.734 215.349 26.14 216.049 26.14C216.609 26.14 216.945 25.958 217.211 25.748V24.852C217.029 24.936 216.861 24.978 216.693 24.978C216.427 24.978 216.259 24.824 216.259 24.502V22.038ZM218.149 24.432C218.149 25.748 218.947 26.168 219.899 26.168C220.655 26.168 221.159 25.972 221.607 25.636V24.53C221.243 24.698 220.893 24.824 220.557 24.824C220.053 24.824 219.815 24.586 219.815 24.054V21.002H221.495V19.826H219.815V18.118H218.793L218.597 18.958C218.457 19.532 218.289 19.84 217.687 19.938L217.267 20.008V21.002H218.149V24.432ZM230.801 17.18H228.687L224.599 22.248V23.872H229.079V26H230.801V23.872H232.145V22.416H230.801V17.18ZM229.079 18.72V22.416H226.111L229.079 18.72ZM240.327 21.59C240.327 18.664 238.871 17.012 236.505 17.012C234.153 17.012 232.697 18.664 232.697 21.59C232.697 24.516 234.153 26.168 236.505 26.168C238.871 26.168 240.327 24.516 240.327 21.59ZM238.479 21.59C238.479 23.718 237.877 24.754 236.505 24.754C235.147 24.754 234.545 23.718 234.545 21.59C234.545 19.462 235.147 18.426 236.505 18.426C237.877 18.426 238.479 19.462 238.479 21.59ZM242.295 19.406C242.295 18.398 242.645 18.006 243.219 18.006C243.807 18.006 244.157 18.398 244.157 19.406C244.157 20.4 243.807 20.806 243.219 20.806C242.645 20.806 242.295 20.4 242.295 19.406ZM241.049 19.406C241.049 20.89 242.043 21.786 243.219 21.786C244.409 21.786 245.403 20.89 245.403 19.406C245.403 17.908 244.409 17.012 243.219 17.012C242.043 17.012 241.049 17.908 241.049 19.406ZM249.785 23.774C249.785 24.782 249.449 25.174 248.861 25.174C248.287 25.174 247.937 24.782 247.937 23.774C247.937 22.78 248.287 22.374 248.861 22.374C249.449 22.374 249.785 22.78 249.785 23.774ZM248.945 17.18H247.713L243.135 26H244.367L248.945 17.18ZM251.031 23.774C251.031 22.29 250.051 21.394 248.861 21.394C247.685 21.394 246.691 22.29 246.691 23.774C246.691 25.272 247.685 26.168 248.861 26.168C250.051 26.168 251.031 25.272 251.031 23.774ZM254.817 24.432C254.817 25.748 255.615 26.168 256.567 26.168C257.323 26.168 257.827 25.972 258.275 25.636V24.53C257.911 24.698 257.561 24.824 257.225 24.824C256.721 24.824 256.483 24.586 256.483 24.054V21.002H258.163V19.826H256.483V18.118H255.461L255.265 18.958C255.125 19.532 254.957 19.84 254.355 19.938L253.935 20.008V21.002H254.817V24.432ZM263.498 19.91C263.316 19.756 263.008 19.658 262.63 19.658C261.776 19.658 261.132 20.302 260.908 21.002V19.826H259.228V26H260.908V22.948C260.908 21.828 261.496 21.212 262.364 21.212C262.77 21.212 263.05 21.296 263.372 21.478L263.498 19.91ZM267.887 23.326C267.887 24.32 267.215 24.992 266.333 24.992C265.801 24.992 265.479 24.74 265.479 24.32C265.479 23.704 265.997 23.578 266.725 23.424L267.887 23.172V23.326ZM269.525 22.038C269.525 20.414 268.475 19.658 266.879 19.658C265.241 19.658 264.275 20.54 264.065 21.8L265.591 21.94C265.731 21.338 266.109 20.918 266.809 20.918C267.523 20.918 267.887 21.338 267.887 22.024V22.164L266.193 22.5C264.793 22.78 263.841 23.27 263.841 24.446C263.841 25.51 264.625 26.154 265.913 26.154C266.823 26.154 267.663 25.776 268.013 25.062C268.167 25.734 268.615 26.14 269.315 26.14C269.875 26.14 270.211 25.958 270.477 25.748V24.852C270.295 24.936 270.127 24.978 269.959 24.978C269.693 24.978 269.525 24.824 269.525 24.502V22.038ZM272.953 22.696C272.953 21.66 273.485 20.988 274.339 20.988C275.165 20.988 275.543 21.534 275.543 22.486V26H277.223V22.15C277.223 20.778 276.621 19.658 274.969 19.658C274.045 19.658 273.261 20.134 272.953 20.834V19.826H271.273V26H272.953V22.696ZM278.125 23.956C278.237 25.468 279.469 26.168 281.079 26.168C282.675 26.168 283.767 25.468 283.767 24.208C283.767 23.046 282.997 22.5 281.695 22.29L280.519 22.094C280.071 22.024 279.847 21.828 279.847 21.492C279.847 21.072 280.239 20.806 280.841 20.806C281.723 20.806 282.199 21.156 282.311 21.856L283.697 21.8C283.585 20.428 282.563 19.658 280.855 19.658C279.287 19.658 278.293 20.47 278.293 21.646C278.293 22.794 279.021 23.284 280.337 23.494L281.317 23.662C281.933 23.76 282.213 23.942 282.213 24.362C282.213 24.81 281.709 25.02 281.093 25.02C280.239 25.02 279.679 24.642 279.581 23.9L278.125 23.956ZM286.487 22.794C286.487 21.674 287.159 20.974 288.111 20.974C289.175 20.974 289.721 21.744 289.721 22.92C289.721 24.082 289.175 24.852 288.111 24.852C287.159 24.852 286.487 24.166 286.487 23.032V22.794ZM286.501 24.824C286.781 25.566 287.523 26.168 288.629 26.168C290.449 26.168 291.415 24.74 291.415 22.92C291.415 21.1 290.449 19.658 288.629 19.658C287.523 19.658 286.781 20.26 286.501 21.016V19.826H284.821V28.296H286.501V24.824ZM296.188 23.326C296.188 24.32 295.516 24.992 294.634 24.992C294.102 24.992 293.78 24.74 293.78 24.32C293.78 23.704 294.298 23.578 295.026 23.424L296.188 23.172V23.326ZM297.826 22.038C297.826 20.414 296.776 19.658 295.18 19.658C293.542 19.658 292.576 20.54 292.366 21.8L293.892 21.94C294.032 21.338 294.41 20.918 295.11 20.918C295.824 20.918 296.188 21.338 296.188 22.024V22.164L294.494 22.5C293.094 22.78 292.142 23.27 292.142 24.446C292.142 25.51 292.926 26.154 294.214 26.154C295.124 26.154 295.964 25.776 296.314 25.062C296.468 25.734 296.916 26.14 297.616 26.14C298.176 26.14 298.512 25.958 298.778 25.748V24.852C298.596 24.936 298.428 24.978 298.26 24.978C297.994 24.978 297.826 24.824 297.826 24.502V22.038ZM303.843 19.91C303.661 19.756 303.353 19.658 302.975 19.658C302.121 19.658 301.477 20.302 301.253 21.002V19.826H299.573V26H301.253V22.948C301.253 21.828 301.841 21.212 302.709 21.212C303.115 21.212 303.395 21.296 303.717 21.478L303.843 19.91ZM309.004 23.844C308.766 24.544 308.276 24.894 307.45 24.894C306.54 24.894 305.826 24.25 305.77 23.34H310.404V22.738C310.404 21.058 309.368 19.658 307.352 19.658C305.504 19.658 304.118 21.058 304.118 23.004C304.118 24.95 305.49 26.168 307.394 26.168C308.976 26.168 310.04 25.356 310.362 23.984L309.004 23.844ZM305.798 22.29C305.952 21.52 306.414 20.89 307.338 20.89C308.276 20.89 308.71 21.576 308.766 22.29H305.798ZM313.162 22.696C313.162 21.66 313.694 20.988 314.548 20.988C315.374 20.988 315.752 21.534 315.752 22.486V26H317.432V22.15C317.432 20.778 316.83 19.658 315.178 19.658C314.254 19.658 313.47 20.134 313.162 20.834V19.826H311.482V26H313.162V22.696ZM318.418 22.92C318.418 24.88 319.776 26.168 321.68 26.168C323.514 26.168 324.522 24.964 324.662 23.48L323.248 23.354C323.122 24.292 322.604 24.88 321.68 24.88C320.756 24.88 320.112 24.194 320.112 22.92C320.112 21.632 320.756 20.946 321.68 20.946C322.604 20.946 323.122 21.52 323.248 22.444L324.662 22.346C324.522 20.862 323.514 19.658 321.68 19.658C319.776 19.658 318.418 20.96 318.418 22.92ZM328.222 28.296L331.764 19.826H330.126L328.46 24.04H328.404L326.724 19.826H324.96L327.522 26.028L326.57 28.296H328.222Z" fill="white"/>
</svg>
