<svg width="279" height="150" viewBox="0 0 279 150" fill="none" xmlns="http://www.w3.org/2000/svg">
<rect width="279" height="150" fill="#C2C9D1"/>
<rect width="279" height="150" fill="white" fill-opacity="0.9"/>
<rect x="31" y="57" width="63.5657" height="58" fill="#C2C9D1"/>
<rect opacity="0.5" x="31" y="25" width="73.4293" height="12" rx="6" fill="#C8C8C8"/>
<rect opacity="0.5" x="213.5" y="25.5" width="34" height="11" rx="5.5" stroke="#949494"/>
<rect x="107.717" y="57" width="63.5657" height="58" fill="#C2C9D1"/>
<rect x="184.434" y="57" width="63.5657" height="58" fill="#C2C9D1"/>
<line opacity="0.2" x1="31" y1="45.5" x2="254" y2="45.5" stroke="#C8C8C8"/>
<path d="M60.4439 82.842H62.6859V92H64.3389V79.954H63.2559C62.8189 81.208 62.1159 81.778 60.4439 81.778V82.842Z" fill="white"/>
<path d="M138.244 90.575L140.505 88.713C142.234 87.288 144.077 85.635 144.077 83.469C144.077 81.436 142.804 79.802 140.011 79.802C137.465 79.802 135.812 81.379 135.812 83.83C135.812 84.191 135.869 84.571 135.945 84.951L137.579 85.027C137.484 84.666 137.446 84.305 137.446 83.944C137.446 82.196 138.358 81.151 139.992 81.151C141.569 81.151 142.367 82.139 142.367 83.545C142.367 85.293 140.961 86.509 139.08 88.143L135.698 91.05V92H144.495V90.575H138.244Z" fill="white"/>
<path d="M219.778 88.713C219.778 90.138 218.695 90.898 217.137 90.898C215.332 90.898 214.173 89.929 214.135 88.029L212.52 87.953C212.52 90.613 214.268 92.228 217.118 92.228C219.759 92.228 221.431 90.822 221.431 88.827C221.431 87.269 220.329 86.167 218.866 85.958C220.044 85.768 221.184 84.723 221.184 83.184C221.184 81.17 219.721 79.802 217.08 79.802C214.382 79.802 212.729 81.607 212.729 84.077L214.325 84.134C214.325 82.234 215.37 81.132 217.061 81.132C218.714 81.132 219.55 82.025 219.55 83.317C219.55 84.856 218.391 85.369 217.137 85.369C216.605 85.369 216.263 85.35 215.997 85.312V86.661C216.282 86.623 216.662 86.604 217.137 86.604C218.638 86.604 219.778 87.345 219.778 88.713Z" fill="white"/>
</svg>
