<svg width="19" height="19" viewBox="0 0 19 19" fill="none" xmlns="http://www.w3.org/2000/svg">
<path d="M9.492 1.58334C5.122 1.58334 1.58325 5.13001 1.58325 9.50001C1.58325 13.87 5.122 17.4167 9.492 17.4167C13.8699 17.4167 17.4166 13.87 17.4166 9.50001C17.4166 5.13001 13.8699 1.58334 9.492 1.58334ZM9.49992 15.8333C6.00075 15.8333 3.16659 12.9992 3.16659 9.50001C3.16659 6.00084 6.00075 3.16668 9.49992 3.16668C12.9991 3.16668 15.8333 6.00084 15.8333 9.50001C15.8333 12.9992 12.9991 15.8333 9.49992 15.8333Z" fill="#FFAF0F"/>
<path d="M9.89575 5.54166H8.70825V10.2917L12.8645 12.7854L13.4583 11.8117L9.89575 9.69791V5.54166Z" fill="#FFAF0F"/>
</svg>
