<svg id="Layer_1" data-name="Layer 1" xmlns="http://www.w3.org/2000/svg" viewBox="0 0 2504 2122.16"><path d="M1296.14,72V328.63L653.55,738A104.86,104.86,0,0,0,605,826.46v967.07L109.47,2109.1C62.93,2138.74,2,2105.31,2,2050.13V826.46A104.86,104.86,0,0,1,50.53,738L1188.66,13.07C1235.2-16.57,1296.14,16.86,1296.14,72Z"/><path d="M605,1793.53l602.85-384v384L712.5,2109.08C666,2138.73,605,2105.3,605,2050.11Z"/><path d="M1899,72.05V328.63l-602.84,384v-384L1791.5,13.08C1838-16.57,1899,16.87,1899,72.05Z"/><path d="M2502,72V1295.7a104.86,104.86,0,0,1-48.53,88.45L1315.35,2109.08c-46.55,29.65-107.48-3.78-107.48-59V1793.53l642.58-409.38A104.86,104.86,0,0,0,1899,1295.7V328.63L2394.53,13.06C2441.07-16.58,2502,16.85,2502,72Z"/></svg>