<svg width="109" height="30" viewBox="0 0 109 30" fill="none" xmlns="http://www.w3.org/2000/svg">
<rect width="109" height="30" fill="white"/>
<path d="M4.5226 9.76902V14.7912H9.73504V9.76902H12.5657V22.861H9.73504V17.2133H4.5226V22.861H1.69189V9.76902H4.5226ZM18.4943 17.7589V22.861H21.3272V17.8388L26.1064 9.76902H22.9502L19.9579 14.9442L16.9454 9.76902H13.7735L18.4943 17.7589ZM27.3119 9.76902V22.861H30.1426V18.1675H33.117C33.8188 18.1854 34.5173 18.0637 35.1732 17.8091C35.6954 17.6009 36.166 17.2782 36.5515 16.864C36.9049 16.4788 37.1702 16.0188 37.3282 15.5171C37.6516 14.5068 37.6516 13.4183 37.3282 12.408C37.17 11.9075 36.9056 11.4485 36.5538 11.0634C36.1672 10.6504 35.6969 10.3279 35.1755 10.1183C34.5194 9.8645 33.8209 9.74353 33.1192 9.76217L27.3119 9.76902ZM30.1426 15.9326V12.0062H32.3425C32.6567 12.0046 32.9705 12.029 33.2808 12.0792C33.5604 12.121 33.8294 12.2171 34.0733 12.3623C34.3059 12.5081 34.4958 12.7146 34.6232 12.9604C34.7731 13.2734 34.844 13.6193 34.8298 13.9671C34.844 14.3156 34.7731 14.6623 34.6232 14.9761C34.4957 15.2212 34.3058 15.427 34.0733 15.5719C33.8303 15.7176 33.562 15.8145 33.2831 15.8573C32.9727 15.9064 32.6589 15.9308 32.3448 15.9303L30.1426 15.9326ZM38.7784 9.76902V22.861H48.55V20.4412H41.6113V17.227H47.8474V14.9898H41.6113V12.1888H48.4086V9.76902H38.7784ZM49.76 9.76902V22.861H55.9961C56.5654 22.8593 57.132 22.7825 57.6819 22.6327C58.2056 22.4958 58.7007 22.2637 59.1433 21.9478C59.571 21.6421 59.9205 21.2366 60.1624 20.7653C60.4247 20.2341 60.5542 19.6452 60.5396 19.0509C60.5607 18.3063 60.3561 17.5732 59.9537 16.9508C59.5205 16.3461 58.8892 15.9186 58.1735 15.7454C58.6963 15.5101 59.1475 15.1364 59.48 14.6634C59.7924 14.1738 59.9491 13.5984 59.929 13.0152C59.9454 12.4854 59.8441 11.9587 59.6327 11.4743C59.4451 11.0711 59.1553 10.726 58.7931 10.4744C58.4011 10.2097 57.9618 10.0258 57.5001 9.93338C56.9483 9.81912 56.3863 9.76403 55.8232 9.76902H49.76ZM52.5884 15.0674V12.0062H55.2396C55.4841 12.0051 55.7283 12.0265 55.9691 12.0701C56.1883 12.1071 56.399 12.1845 56.5909 12.2984C56.773 12.4083 56.9226 12.566 57.0242 12.7549C57.141 12.9869 57.1967 13.2456 57.1858 13.506C57.1858 14.0569 57.0234 14.4549 56.6987 14.6999C56.3348 14.9571 55.8978 15.0854 55.4551 15.0651L52.5884 15.0674ZM52.5884 20.6238V17.0284H55.6728C56.1995 17.0006 56.7203 17.1507 57.1544 17.4553C57.524 17.7429 57.7096 18.2223 57.7111 18.8934C57.722 19.1846 57.6643 19.4742 57.5427 19.7381C57.4345 19.9499 57.2755 20.1305 57.0803 20.2631C56.8744 20.396 56.6461 20.4889 56.4069 20.5371C56.1461 20.5916 55.8806 20.6192 55.6144 20.6192L52.5884 20.6238ZM61.7473 9.76902V22.861H71.5212V20.4412H64.5825V17.227H70.8208V14.9898H64.5825V12.1888H71.3797V9.76902H61.7473ZM77.5956 9.76902L72.7311 22.861H75.5775L76.581 19.9458H81.3961L82.3703 22.861H85.3088L80.5026 9.76902H77.5956ZM77.3262 17.8L79.0031 13.0061H79.0502L80.6732 17.8H77.3262ZM88.2899 19.6422C88.1273 19.2932 88.0503 18.9094 88.0654 18.5236H85.3155C85.2869 19.2464 85.4358 19.9651 85.7488 20.6147C86.0381 21.1868 86.4547 21.6824 86.9654 22.062C87.4975 22.4508 88.0969 22.7342 88.7321 22.8975C89.4065 23.0756 90.1006 23.1646 90.7973 23.1623C91.5804 23.1758 92.3611 23.0711 93.114 22.8518C93.7231 22.6741 94.2926 22.378 94.7908 21.9798C95.2293 21.6253 95.5786 21.17 95.81 20.6512C96.0412 20.1265 96.1583 19.5574 96.1534 18.9825C96.18 18.3474 96.0198 17.7187 95.6933 17.1768C95.4085 16.7296 95.0373 16.3459 94.6023 16.049C94.2109 15.7817 93.7827 15.5748 93.3317 15.435C92.903 15.3071 92.5707 15.2181 92.3305 15.1679C91.5247 14.9624 90.8714 14.7889 90.3731 14.6565C89.9727 14.5587 89.5814 14.4258 89.2035 14.2593C88.9744 14.1657 88.7766 14.0073 88.6333 13.8028C88.5308 13.6121 88.4811 13.3967 88.4897 13.1795C88.4823 12.938 88.5456 12.6997 88.6715 12.4947C88.7883 12.3125 88.9412 12.157 89.1205 12.0381C89.311 11.9136 89.5226 11.8261 89.7445 11.7802C89.966 11.7329 90.1916 11.7084 90.418 11.7071C90.7419 11.7054 91.0652 11.736 91.3832 11.7984C91.6611 11.8538 91.9272 11.9589 92.1689 12.1089C92.4085 12.2558 92.6066 12.4635 92.7436 12.7116C92.8939 13.0129 92.9775 13.3441 92.9883 13.6818H95.7292C95.7458 13.0106 95.5969 12.3458 95.2959 11.7482C95.0218 11.2254 94.6294 10.7762 94.1511 10.4379C93.652 10.0865 93.0922 9.83403 92.5011 9.69369C91.8667 9.53926 91.2163 9.46262 90.5639 9.46541C89.9796 9.46387 89.3977 9.54062 88.8331 9.69369C88.2773 9.84325 87.7521 10.0921 87.282 10.4288C86.8282 10.7542 86.4498 11.1765 86.173 11.666C85.8803 12.2006 85.7338 12.8053 85.7488 13.417C85.7341 13.9476 85.8482 14.4737 86.081 14.9487C86.2959 15.3595 86.5943 15.719 86.9565 16.0034C87.3312 16.2906 87.7448 16.5213 88.1844 16.6882C88.6434 16.8688 89.1127 17.0213 89.5896 17.1448C90.0595 17.2802 90.522 17.402 90.9769 17.51C91.3951 17.6142 91.8054 17.7484 92.2048 17.9118C92.5287 18.0349 92.8255 18.2218 93.0781 18.462C93.1892 18.572 93.2767 18.7043 93.335 18.8505C93.3934 18.9966 93.4213 19.1535 93.417 19.3112C93.4282 19.6053 93.3385 19.8942 93.1634 20.1284C92.99 20.3452 92.7695 20.5179 92.5191 20.6329C92.2657 20.7558 91.9955 20.8389 91.7177 20.8795C91.4495 20.9209 91.1786 20.9423 90.9073 20.9434C90.5423 20.9457 90.1786 20.8996 89.8253 20.8064C89.4982 20.726 89.189 20.5835 88.9139 20.3864C88.6519 20.1916 88.4388 19.9366 88.2921 19.6422H88.2899ZM100.78 12.1888V22.861H103.613V12.1888H107.472V9.76902H96.9212V12.1888H100.78Z" fill="black"/>
</svg>
