<svg width="67" height="30" viewBox="0 0 67 30" fill="none" xmlns="http://www.w3.org/2000/svg">
<rect width="67" height="30" fill="white"/>
<path d="M14.3934 21.6123L14.4461 23.6019C13.9585 23.6788 13.4656 23.7147 12.9723 23.7094C11.5248 23.7094 10.7352 23.0104 10.6036 21.6123C9.86673 23.1448 8.41923 23.9245 6.18219 23.9245C3.94515 23.9245 1.76074 22.6878 1.76074 20.0529C1.76074 17.1491 4.15569 16.3425 6.23482 15.9392L10.5773 15.0789C10.5773 13.869 10.5247 13.1968 10.1299 12.6322C9.73514 12.0676 8.89296 11.7449 7.73496 11.7449C5.44528 11.7449 4.52415 12.6053 4.52415 14.6487L2.20815 14.326C2.26079 12.7128 2.81347 11.5298 3.83987 10.8308C4.78733 10.1855 6.18219 9.83598 7.86655 9.83598C11.1826 9.83598 12.867 11.3416 12.867 14.2723V20.6981C12.867 21.3972 12.867 21.7198 13.6302 21.7198C13.8879 21.7152 14.1441 21.6791 14.3934 21.6123V21.6123ZM10.5773 16.8803L6.60328 17.7675C5.20842 18.0902 4.18201 18.4934 4.18201 20.026C4.18201 21.2896 5.26105 21.9887 6.55064 21.9887C9.41932 21.9887 10.5773 20.4562 10.5773 18.5203V16.8803ZM21.9994 10.0511C22.2099 10.0242 22.71 10.0242 22.8942 10.0242L22.8416 12.3095C22.6407 12.2853 22.4384 12.2763 22.2363 12.2827C19.736 12.2827 17.9201 13.0893 17.9201 17.418V23.6019H15.5514V10.1586H17.9201V12.7128C18.2885 11.4492 19.8413 10.3199 21.9994 10.0511ZM28.4236 10.1586H31.1081V12.1751H28.4236V20.5099C28.4236 21.3972 28.8184 21.5585 29.7922 21.5585C30.1985 21.5453 30.6032 21.5004 31.0028 21.4241L31.0555 23.6019C30.5776 23.6891 30.0933 23.734 29.608 23.7363C27.1604 23.7363 26.0813 22.7684 26.0813 20.5906V12.1751H24.1864V10.1586H26.0813V6.42139H28.4236V10.1586ZM42.9513 11.3416C43.9513 12.444 43.9777 14.1916 43.9777 15.6166V23.6019H41.5301V15.751C41.5301 14.5142 41.5564 13.4119 40.7405 12.6322C40.0036 11.8794 39.1351 11.8525 38.3982 11.8525C37.2402 11.8525 34.9769 12.3364 34.9769 16.1812V23.6019H32.6082V10.1586H34.9769V12.202C35.6348 10.6963 36.9244 9.83598 39.0299 9.83598C40.7668 9.83598 42.0038 10.3199 42.9513 11.3416ZM56.6893 12.4977C57.4789 13.7883 57.9 15.6972 57.7947 17.6062H47.8175C47.8701 20.5637 49.0807 21.9887 51.5546 21.9887C53.7917 21.9887 55.0023 21.0208 55.3181 18.9774L57.6078 19.1656C57.0288 22.3113 54.9234 23.9245 51.5836 23.9245C49.5571 23.9245 47.978 23.3061 46.8463 21.9618C45.741 20.6981 45.2409 18.9505 45.2409 16.8534C45.2409 14.8638 45.7936 13.1161 46.899 11.8525C48.057 10.5081 49.6624 9.83598 51.5573 9.83598C53.6364 9.83598 55.6103 10.7501 56.6893 12.4977V12.4977ZM48.4781 13.2506C48.0657 13.9778 47.8479 14.8031 47.8464 15.6435H55.3734C55.3319 14.7984 55.0879 13.9767 54.6628 13.2506C53.9785 12.2289 53.0048 11.7987 51.5836 11.7987C50.1098 11.7987 49.0044 12.3633 48.4781 13.2506V13.2506ZM62.2424 12.1751V20.5099C62.2424 21.3972 62.6372 21.5585 63.611 21.5585C64.0173 21.5453 64.422 21.5004 64.8216 21.4241L64.8743 23.6019C64.3964 23.6891 63.9121 23.734 63.4268 23.7363C60.9792 23.7363 59.9001 22.7684 59.9001 20.5906V12.1751H58.0052V10.1586H59.9001V6.42139H62.2424V10.1586H64.9243V12.1751H62.2424Z" fill="black"/>
</svg>
