<svg width="58" height="30" viewBox="0 0 58 30" fill="none" xmlns="http://www.w3.org/2000/svg">
<rect width="58" height="30" fill="white"/>
<path d="M18.7563 23.4867C16.7504 23.3037 15.4208 22.353 15.1497 20.9079C15.0929 20.6052 15.1039 19.8826 15.1694 19.6097C15.1868 19.5372 15.1963 19.4778 15.1905 19.4778C15.1846 19.4778 14.8785 19.7005 14.5101 19.9725C13.0849 21.0253 11.9121 21.7651 10.7236 22.3609C9.35244 23.0483 8.55462 23.2521 7.2258 23.2541C6.32416 23.2556 5.77036 23.1517 5.18255 22.8711C4.27399 22.4373 3.84924 21.7816 3.84924 20.8128C3.84924 20.3395 3.89254 20.141 4.07356 19.7848C4.1597 19.6152 4.23018 19.4596 4.23018 19.439C4.23018 19.4183 4.1039 19.1719 3.94956 18.8913C3.39969 17.8918 2.7245 16.3908 2.19719 14.9958C0.986049 11.7917 2.41333 8.99868 6.0137 7.52742C6.26132 7.42624 6.87689 7.14144 7.38165 6.89454C8.42068 6.3863 8.51623 6.34447 8.98045 6.19464C9.89539 5.89933 10.7317 5.9931 11.4104 6.46708C11.7786 6.72419 12.1429 7.28409 12.2297 7.72611C12.2517 7.83824 12.2803 7.97156 12.2932 8.02238L12.3166 8.11477L12.5937 8.03072C13.7043 7.6938 14.9805 7.40683 15.9529 7.27534C16.6442 7.18187 18.1701 7.16093 18.7303 7.23724L19.0488 7.28063L19.2998 7.11579C20.6361 6.23834 22.8773 6.21221 26.1308 7.03616C27.1632 7.29763 27.7355 7.4731 28.2957 7.7C29.3591 8.13069 29.4043 8.12851 30.3026 7.60358C31.1759 7.09327 32.6731 6.52279 33.8717 6.24365C34.6724 6.05719 35.1808 6.00138 36.0911 6.00003C37.1129 5.99851 37.507 6.05122 38.2004 6.28219C38.882 6.50921 39.0591 6.53065 39.6262 6.45476C40.2402 6.37258 42.0663 6.34275 43.1213 6.39766C45.6678 6.53021 47.4455 6.79463 52.0043 7.71883C54.0164 8.12675 55.6189 8.43266 56.2813 8.53527L56.4717 8.56478L56.468 8.6927C56.466 8.76306 56.4348 8.85978 56.3988 8.90763C56.0987 9.3058 54.744 10.9976 54.4161 11.3836C53.8657 12.0316 53.1385 12.764 52.6361 13.1766L52.2244 13.5146L52.2479 13.8861C52.2747 14.3074 52.225 14.8194 52.1296 15.1063L52.0671 15.2942L52.3578 15.6723C52.6726 16.082 52.94 16.5089 53.0582 16.7909L53.1328 16.969L53.063 17.283C52.5944 19.3912 51.5375 20.7791 49.796 21.5736C48.4575 22.1843 44.7692 23.0279 42.2209 23.3063C40.8252 23.4588 38.9365 23.4926 38.0305 23.3813C36.5594 23.2006 35.5181 22.8662 34.7133 22.316L34.4264 22.1199L34.1419 22.2733C33.2621 22.7479 31.9972 23.1171 30.5847 23.3117C29.9044 23.4055 28.2622 23.4442 27.5677 23.3828C25.9293 23.2379 24.5165 22.8127 23.5833 22.1835C23.4696 22.1068 23.3678 22.044 23.3572 22.044C23.3465 22.044 23.2345 22.1429 23.1082 22.2637C22.4844 22.8604 21.5322 23.2708 20.3991 23.4311C19.9356 23.4967 19.1558 23.5231 18.7563 23.4867V23.4867ZM20.2126 21.5154C20.9175 21.4341 21.4326 21.2483 21.6594 20.9935C21.8328 20.7987 21.9431 20.5939 22.1691 20.0476C22.2787 19.7826 22.5405 19.2128 22.7507 18.7815L23.133 17.9973L23.1557 18.2366C23.2845 19.5948 24.0443 20.4311 25.6368 20.9676C27.3354 21.5399 28.7823 21.6434 30.5501 21.319C32.0578 21.0423 33.7551 20.3919 35.3203 19.491C35.5345 19.3678 35.7144 19.2669 35.7202 19.2669C35.7259 19.2669 35.7242 19.4622 35.7164 19.7009C35.6828 20.7247 35.9763 20.99 37.4694 21.2855C38.8666 21.5621 40.4927 21.5917 42.2036 21.3717C43.7253 21.176 47.2352 20.3868 48.4372 19.9701C49.9676 19.4395 50.6874 18.7399 51.0052 17.4741L51.0891 17.1402L51.0151 17.079C50.9013 16.9848 50.5465 16.8869 50.2208 16.8597C49.5661 16.8051 48.7117 16.9515 47.052 17.4028C45.429 17.8441 44.669 17.9833 43.6581 18.0244C42.5768 18.0683 41.3198 17.841 41.1802 17.5763C41.0986 17.4215 41.1717 17.1945 41.3448 17.0652C41.9158 16.6387 42.8087 16.4978 45.3204 16.4376C47.8989 16.3759 48.7814 16.1952 49.5434 15.5729C50.0961 15.1217 50.4187 14.4834 50.3453 13.9865C50.2521 13.3556 49.3859 12.966 48.1971 13.0203C47.6247 13.0464 47.218 13.1229 46.0304 13.4279C45.5066 13.5624 44.9066 13.6983 44.697 13.7297C44.1423 13.8131 43.0589 13.8039 42.9166 13.7146C42.8856 13.6952 42.8925 13.6578 42.9435 13.5688C42.9813 13.5029 43.0693 13.308 43.1392 13.1356C43.274 12.8031 43.3868 12.6002 43.4812 12.5207C43.5609 12.4535 44.7607 12.4883 45.9091 12.5911C46.9278 12.6822 48.2948 12.7006 48.7836 12.6298C50.3066 12.4092 51.4325 11.8042 52.4536 10.6577C52.5974 10.4962 52.7772 10.3029 52.8532 10.228C52.9397 10.1428 52.9913 10.06 52.9913 10.0064C52.9913 9.91419 52.9635 9.89986 52.7142 9.86324C52.3552 9.81051 51.1561 9.58515 49.9091 9.33605C46.9366 8.74225 45.5765 8.52055 43.8313 8.3454C42.9644 8.2584 40.4752 8.25572 39.8264 8.34108C39.21 8.42219 39.1467 8.4574 38.3607 9.15656C38.2543 9.25115 38.1584 9.31946 38.1474 9.30835C38.1365 9.29724 38.1747 9.13285 38.2324 8.94303C38.2901 8.75321 38.3478 8.53884 38.3608 8.46665C38.3889 8.30953 38.3879 8.30897 37.7931 8.15491C35.8469 7.65083 33.7727 8.03519 31.0869 9.39759C28.6401 10.6387 26.8989 11.8136 25.3205 13.2886L25.0032 13.5851L25.2524 13.1656C25.8464 12.1655 26.3161 11.4994 27.201 10.4019C27.8293 9.62269 27.8673 9.56921 27.808 9.54789C27.4381 9.41502 24.8478 8.78697 23.8316 8.58379C22.8965 8.39681 22.1616 8.32698 21.5965 8.37143C20.9107 8.42538 20.5268 8.5818 20.0989 8.98176C19.6533 9.39829 19.5562 9.42216 18.9462 9.2652C17.9863 9.01822 16.716 9.05957 15.0352 9.3925C12.6451 9.86594 11.794 10.3154 11.7201 11.1433C11.7074 11.2851 11.734 11.5013 11.8134 11.9031C12.0039 12.8675 11.9415 13.0749 11.0199 14.5377C10.6095 15.1891 10.3894 15.4752 10.1403 15.6813C9.92448 15.8598 9.70431 15.979 9.66465 15.9387C9.58253 15.8554 9.52166 15.02 9.53959 14.2224C9.5636 13.1543 9.76583 11.8823 10.2047 10.0392C10.3652 9.36506 10.4039 8.71411 10.3093 8.28221L10.2493 8.00851L9.94964 8.02775C9.49812 8.05675 9.26528 8.14831 8.31669 8.66982C8.05955 8.81119 7.52969 9.05616 7.13922 9.21419C5.56898 9.8497 4.83118 10.2974 4.34373 10.9103C3.87322 11.502 3.68342 12.1324 3.71973 12.9829C3.74265 13.5195 3.80735 13.7512 4.25255 14.8903C4.97055 16.7275 5.43409 17.6557 6.29401 18.9779C6.51126 19.3119 6.68901 19.6004 6.68901 19.619C6.68901 19.6375 6.50492 19.8388 6.27992 20.0662C5.96171 20.3878 5.86169 20.5119 5.82971 20.6244C5.76589 20.849 5.77824 20.9053 5.91664 21.0211C6.14456 21.2118 6.3983 21.2769 6.99073 21.2967C8.25672 21.339 9.26702 21.0006 11.1464 19.9051C13.2013 18.7073 14.3475 17.6627 16.8037 14.7497C17.1949 14.2857 17.6532 13.732 17.822 13.5194C18.2111 13.0293 18.3418 12.8875 18.5215 12.7606L18.6659 12.6587L18.7069 12.8429C18.7295 12.9443 18.7557 13.2566 18.7651 13.5369C18.7947 14.4195 18.6735 14.9145 18.0878 16.3031C17.2393 18.3147 16.88 19.8318 17.0725 20.5909C17.2007 21.0966 17.7958 21.3914 18.9659 21.5291C19.2015 21.5569 19.9218 21.5489 20.2126 21.5154L20.2126 21.5154ZM29.5631 18.2134C28.846 18.0517 28.4598 17.6506 28.4618 17.0698C28.463 16.7579 28.5102 16.585 28.7019 16.1924C29.0733 15.4318 29.6079 14.7678 30.7652 13.6296C31.1897 13.212 31.6688 12.7204 31.8298 12.537C31.9908 12.3536 32.1284 12.2095 32.1355 12.2168C32.1587 12.2404 31.9464 13.0032 31.6452 13.9783C31.3844 14.8226 31.139 15.6863 31.1389 15.7604C31.1388 15.8364 32.2687 15.7622 33.9613 15.5751C34.647 15.4994 35.3606 15.4266 35.547 15.4134C35.8597 15.3914 35.891 15.3824 35.95 15.2981C36.0336 15.1786 36.1732 14.8388 36.2474 14.574C36.28 14.458 36.3177 14.3508 36.3314 14.3357C36.3661 14.2975 36.52 14.5971 36.6163 14.8903C36.7206 15.2078 36.7329 15.9313 36.6377 16.1471C36.5813 16.2748 36.5739 16.2789 36.4004 16.2789C35.7112 16.2789 34.8081 16.5445 33.6842 17.0778C31.639 18.0483 31.1727 18.2034 30.2211 18.2301C29.9354 18.238 29.6393 18.2305 29.5631 18.2134V18.2134ZM37.3202 11.6833C37.3339 11.6491 37.422 11.3996 37.516 11.1289C37.61 10.8583 37.7121 10.5688 37.7428 10.4857L37.7987 10.3347L37.9059 10.4381C38.0715 10.5978 38.3281 10.7113 38.9107 10.8826C39.4017 11.0269 39.8313 11.1888 39.8313 11.2295C39.8313 11.2586 39.4885 11.3226 38.7588 11.4299C38.075 11.5305 37.6022 11.6266 37.3945 11.707C37.3058 11.7414 37.298 11.7388 37.3202 11.6833V11.6833Z" fill="black"/>
</svg>
