<svg width="117" height="30" viewBox="0 0 117 30" fill="none" xmlns="http://www.w3.org/2000/svg">
<rect width="117" height="30" fill="white"/>
<path d="M9.61371 10.4937C9.61371 9.29874 8.42777 9 7.49149 9V9.17925C8.05326 9.17925 8.49019 9.35849 8.49019 9.77673C8.49019 10.0157 8.30293 10.3742 7.74117 10.3742C7.30424 10.3742 6.36797 10.1352 5.68137 9.89623C4.86993 9.59748 4.12091 9.35849 3.49673 9.35849C2.24836 9.35849 1.37451 10.2547 1.37451 11.2704C1.37451 12.1667 2.06111 12.4654 2.31078 12.5849L2.3732 12.4654C2.24836 12.3459 2.06111 12.2264 2.06111 11.8679C2.06111 11.6289 2.31078 11.2107 2.93496 11.2107C3.49673 11.2107 4.24575 11.4497 5.24444 11.7484C6.11829 11.9874 7.05457 12.1667 7.55391 12.2264V14.0786L6.61764 14.8553V14.9151L7.55391 15.6918V18.261C7.05457 18.5597 6.4928 18.6195 5.99346 18.6195C5.05718 18.6195 4.24575 18.3805 3.55915 17.6635L6.11829 16.4686V12.3459L2.99738 13.6604C3.24706 12.8836 3.93366 12.3459 4.62026 11.9874L4.55784 11.8082C2.68529 12.2862 1 13.9591 1 15.9906C1 18.3805 3.0598 20.173 5.36928 20.173C7.866 20.173 9.48888 18.261 9.48888 16.2893H9.36404C8.98953 17.066 8.42777 17.783 7.74117 18.1415V15.6918L8.73986 14.9151V14.8553L7.74117 14.0786V12.2264C8.67744 12.2264 9.61371 11.6289 9.61371 10.4937ZM4.18333 17.066L3.43431 17.4245C2.99738 16.8868 2.74771 16.1698 2.74771 15.1541C2.74771 14.7358 2.74771 14.2579 2.87255 13.8994L4.18333 13.3616V17.066V17.066ZM10.7997 18.4403L9.98822 19.0377L10.1131 19.1572L10.4876 18.8585L11.8608 20.0535L13.7333 18.8585L13.6709 18.739L13.1716 19.0377L12.5474 18.4403V14.3774L13.0467 14.0189L14.1078 14.8553V18.5C14.1078 20.7704 13.6085 21.1289 12.5474 21.4874V21.6667C14.2951 21.7264 15.918 21.1887 15.918 18.261V14.3176L16.4797 13.8994L16.3549 13.7799L15.8555 14.1384L14.2951 12.8836L12.5474 14.1384V9.23899H12.4225L10.2379 10.673V10.7925C10.4876 10.9119 10.8621 11.0314 10.8621 11.6887L10.7997 18.4403V18.4403ZM22.2222 17.783L20.6617 18.9182L19.1013 17.7233V17.0063L22.0349 15.0943V15.0346L20.5369 12.8836L17.2912 14.5566V18.5L16.667 18.978L16.7918 19.0975L17.3536 18.6792L19.4758 20.173L22.2846 18.022L22.2222 17.783V17.783ZM19.1013 16.7673V13.8396L19.2261 13.7799L20.5993 15.8711L19.1013 16.7673ZM34.1441 9.95597C34.1441 9.77673 34.0817 9.59748 34.0192 9.41824H33.8944C33.7071 9.89623 33.4575 10.1352 32.8333 10.1352C32.2715 10.1352 31.897 9.83648 31.6473 9.59748L29.8372 11.5692L29.9621 11.6887L30.5862 11.1509C30.9607 11.4497 31.2728 11.6887 32.1467 11.7484V16.7075L28.464 10.673C28.1519 10.195 27.715 9.53774 26.8411 9.53774C25.8425 9.53774 24.9686 10.3742 25.0934 11.6887H25.2807C25.3431 11.3302 25.5304 10.9119 25.9673 10.9119C26.2794 10.9119 26.5915 11.2107 26.7787 11.5094V13.4811C25.6552 13.4811 24.9062 13.9591 24.9062 14.8553C24.9062 15.3333 25.1559 16.0503 25.9049 16.2296V16.1101C25.78 15.9906 25.7176 15.8711 25.7176 15.6918C25.7176 15.3931 25.9673 15.1541 26.4042 15.1541H26.7163V17.6635C25.4055 17.6635 24.3444 18.3805 24.3444 19.5755C24.3444 20.7107 25.3431 21.2484 26.4666 21.1887V21.0692C25.78 21.0094 25.4679 20.7107 25.4679 20.2925C25.4679 19.7547 25.8425 19.5157 26.3418 19.5157C26.8411 19.5157 27.2781 19.8145 27.5902 20.173L29.4003 18.261L29.2755 18.1415L28.8385 18.6195C28.1519 18.022 27.7774 17.8428 26.966 17.7233V11.7484L31.9594 20.1132H32.3339V11.7484C33.2702 11.6887 34.1441 10.9717 34.1441 9.95597V9.95597ZM38.7006 17.783L37.1402 18.9182L35.5797 17.7233V17.0063L38.5134 15.0943V15.0346L37.0153 12.8836L33.7696 14.5566V18.5L33.1454 18.978L33.2702 19.0975L33.832 18.6792L35.9542 20.173L38.763 18.022L38.7006 17.783V17.783ZM35.5797 16.7673V13.8396L35.7045 13.7799L37.0777 15.8711L35.5797 16.7673V16.7673ZM48.8748 13.5409L48.4378 13.8396L47.2519 12.8836L45.8787 14.0786L46.4405 14.6164V19.0975L44.9424 18.2013V14.4969L45.4418 14.1981L44.0062 12.8836L42.633 14.0786L43.1947 14.6164V18.9182L43.0075 19.0377L41.6967 18.1415V14.5566C41.6967 13.7201 41.2598 13.4811 40.7604 13.1824C40.3235 12.8836 40.0738 12.7044 40.0738 12.2862C40.0738 11.9277 40.4483 11.7484 40.6356 11.6289V11.5094C40.1362 11.5094 38.8254 11.9874 38.8254 13.1226C38.8254 13.7201 39.1375 13.9591 39.4496 14.2579C39.7617 14.5566 40.0738 14.7956 40.0738 15.3333V18.7987L39.3872 19.2767L39.512 19.3962L40.1362 18.9182L41.5718 20.1132L43.1323 19.0975L44.88 20.1132L48.1882 18.261V14.2579L48.9996 13.6604L48.8748 13.5409V13.5409ZM60.4846 10.2547L59.8604 10.7925L58.4872 9.59748L56.4274 11.0314V9.71698H56.2401L56.3025 19.3962C56.1153 19.3962 55.5535 19.2767 55.1166 19.1572L54.9918 11.0912C54.9918 10.4937 54.5548 9.65723 53.4313 9.65723C52.3078 9.65723 51.5588 10.4937 51.5588 11.3302H51.746C51.8084 10.9717 51.9957 10.673 52.3702 10.673C52.7447 10.673 53.0568 10.9119 53.0568 11.6887V14.0189C51.9333 14.0786 51.2467 14.6761 51.2467 15.4528C51.2467 15.9308 51.4963 16.6478 52.2454 16.6478V16.5283C51.9957 16.4088 51.9333 16.2296 51.9333 16.1101C51.9333 15.7516 52.2454 15.6321 52.7447 15.6321H52.9944V19.3365C52.0581 19.6352 51.6836 20.2925 51.6836 21.0094C51.6836 22.0252 52.495 22.7421 53.7434 22.7421C54.6173 22.7421 55.3663 22.6226 56.1153 22.4434C56.7395 22.3239 57.5509 22.1447 57.9254 22.1447C58.4248 22.1447 58.612 22.3836 58.612 22.6824C58.612 23.1006 58.4248 23.2799 58.1751 23.3396V23.4591C59.1738 23.2799 59.798 22.6824 59.798 21.7862C59.798 20.8899 58.8617 20.3522 57.863 20.3522C57.3637 20.3522 56.3025 20.5314 55.5535 20.6509C54.6797 20.8302 53.8058 20.9497 53.5561 20.9497C53.1192 20.9497 52.6199 20.7704 52.6199 20.173C52.6199 19.695 53.0568 19.2767 54.1179 19.2767C54.6797 19.2767 55.3663 19.3365 56.0529 19.5157C56.8019 19.695 57.4885 19.8742 58.1127 19.8742C59.0489 19.8742 59.8604 19.5755 59.8604 18.3208V10.9717L60.6094 10.3742L60.4846 10.2547V10.2547ZM57.9254 13.8994C57.7382 14.0786 57.4885 14.2579 57.1764 14.2579C56.8643 14.2579 56.5522 14.0786 56.4274 13.8994V11.2704L57.0516 10.8522L57.9254 11.6289V13.8994ZM57.9254 15.6918C57.8006 15.5723 57.4885 15.3931 57.1764 15.3931C56.8643 15.3931 56.5522 15.5723 56.4274 15.6918V14.1384C56.5522 14.2579 56.8643 14.4371 57.1764 14.4371C57.4885 14.4371 57.8006 14.2579 57.9254 14.1384V15.6918ZM57.9254 18.5C57.9254 18.978 57.6133 19.456 56.9267 19.456H56.4274V15.9308C56.5522 15.8113 56.8643 15.6321 57.1764 15.6321C57.4885 15.6321 57.7382 15.8113 57.9254 15.9308V18.5V18.5ZM66.4767 14.2579L64.4793 12.8836L61.4208 14.5566V18.4403L60.7967 18.9182L60.8591 19.0377L61.3584 18.6792L63.3558 20.1132L66.4767 18.3208V14.2579V14.2579ZM63.1061 18.022V13.7201L64.6666 14.7956V19.0377L63.1061 18.022V18.022ZM72.4064 13.0031H72.2816C72.0944 13.1226 71.9071 13.2421 71.7198 13.2421C71.4702 13.2421 71.1581 13.1226 71.0332 12.9434H70.9084L69.8473 14.0786L68.7862 12.9434L66.9136 14.1384L66.9761 14.2579L67.4754 13.9591L68.0996 14.6164V18.3805L67.2882 18.978L67.413 19.0975L67.7875 18.7987L69.2855 19.9937L71.2205 18.739L71.1581 18.6195L70.5963 18.9182L69.8473 18.3208V14.1384C70.1594 14.4371 70.5339 14.7358 70.9708 14.7358C71.8447 14.7956 72.344 13.9591 72.4064 13.0031V13.0031ZM79.8966 18.739L77.7744 20.1132L74.9032 15.9308L76.963 12.8836H77.0878C77.3375 13.1226 77.712 13.3616 78.1489 13.3616C78.5858 13.3616 78.8979 13.1226 79.0852 12.8836H79.21C79.1476 14.0786 78.2738 14.7956 77.6496 14.7956C77.0254 14.7956 76.7133 14.4969 76.3388 14.3176L76.1515 14.6164L79.2725 19.0377L79.8966 18.6792V18.739V18.739ZM73.0306 18.4403L72.2192 19.0377L72.344 19.1572L72.7185 18.8585L74.0917 20.0535L75.9643 18.8585L75.8394 18.739L75.3401 19.0377L74.7159 18.4403V9.23899H74.6535L72.4064 10.673V10.7925C72.6561 10.9119 73.0306 10.9717 73.0306 11.6887V18.4403V18.4403ZM90.2581 10.4937C90.2581 9.29874 89.0721 9 88.1358 9V9.17925C88.6976 9.17925 89.1345 9.35849 89.1345 9.77673C89.1345 10.0157 88.9473 10.3742 88.3855 10.3742C87.9486 10.3742 87.0123 10.1352 86.3257 9.89623C85.5143 9.65723 84.7653 9.41824 84.1411 9.41824C82.8927 9.41824 82.0189 10.3145 82.0189 11.3302C82.0189 12.2264 82.7055 12.5252 82.9551 12.6447L83.0175 12.5252C82.8303 12.4057 82.643 12.2862 82.643 11.9277C82.643 11.6887 82.8927 11.2704 83.5169 11.2704C84.0787 11.2704 84.8277 11.5094 85.8264 11.8082C86.7002 12.0472 87.6365 12.2264 88.1358 12.2862V14.1384L87.1996 14.9151V14.9748L88.1358 15.7516V18.3208C87.6365 18.6195 87.0747 18.6792 86.5754 18.6792C85.6391 18.6792 84.8277 18.4403 84.1411 17.7233L86.7002 16.5283V12.3459L83.5793 13.6604C83.8914 12.8836 84.578 12.3459 85.2022 11.9277L85.1398 11.8082C83.2672 12.2862 81.5819 13.8994 81.5819 15.9308C81.5819 18.3208 83.6417 20.1132 85.9512 20.1132C88.4479 20.1132 90.0708 18.2013 90.0708 16.2296H89.946C89.5715 17.0063 89.0097 17.7233 88.3231 18.0818V15.6321L89.3218 14.8553V14.7956L88.3855 14.0189V12.2264C89.3218 12.2264 90.2581 11.6289 90.2581 10.4937V10.4937ZM84.8277 17.066L84.0787 17.4245C83.6417 16.8868 83.3921 16.1698 83.3921 15.1541C83.3921 14.7358 83.4545 14.2579 83.5793 13.8994L84.8901 13.3616L84.8277 17.066V17.066ZM92.4427 9.89623H92.3803L91.1319 10.9119V10.9717L92.193 12.1069H92.3179L93.5662 11.0912V11.0314L92.4427 9.89623V9.89623ZM94.3152 18.739L93.8159 19.0377L93.1917 18.4403V14.3176L93.8159 13.8994L93.6911 13.7799L93.2541 14.1384L92.1306 12.8836L90.3205 14.0786L90.4453 14.2579L90.8822 13.9591L91.444 14.6164V18.5L90.6326 19.0975L90.695 19.217L91.1319 18.9182L92.5051 20.1132L94.3777 18.9182L94.3152 18.739V18.739ZM104.739 18.6792L104.302 18.978L103.616 18.3805V14.3176L104.24 13.8396L104.115 13.7201L103.616 14.1384L102.18 12.8836L100.307 14.1384L98.8718 12.8836L97.1241 14.1384L96.0005 12.8836L94.1904 14.0786L94.2528 14.2579L94.6898 13.9591L95.3139 14.6164V18.5L94.8146 18.978L96.2502 20.1132L97.6234 18.9182L97.0616 18.3805V14.3176L97.6234 13.9591L98.5597 14.7956V18.3805L98.0603 18.8585L99.496 19.9937L100.869 18.7987L100.307 18.261V14.3176L100.807 14.0189L101.805 14.8553V18.4403L101.369 18.8585L102.804 20.1132L104.739 18.8585V18.6792V18.6792ZM110.169 17.783L108.609 18.9182L107.049 17.7233V17.0063L109.982 15.0943V15.0346L108.484 12.8836L105.238 14.5566V18.6195L107.423 20.1132L110.232 17.9623L110.169 17.783V17.783ZM107.049 16.7673V13.8396L107.173 13.7799L108.547 15.8711L107.049 16.7673V16.7673ZM115.85 16.2296L114.664 15.3333C115.475 14.6761 115.787 13.7799 115.787 13.1824V12.8239H115.662C115.537 13.1226 115.288 13.4214 114.788 13.4214C114.289 13.4214 113.977 13.1824 113.665 12.8239L110.856 14.3176V16.4686L111.917 17.2453C110.856 18.1415 110.669 18.739 110.669 19.217C110.669 19.8145 110.981 20.2327 111.48 20.412L111.543 20.2925C111.418 20.173 111.293 20.1132 111.293 19.8145C111.293 19.6352 111.543 19.3365 112.042 19.3365C112.666 19.3365 113.041 19.7547 113.228 19.934L115.912 18.3805V16.2296H115.85V16.2296ZM115.163 14.4371C114.726 15.1541 113.79 15.8711 113.228 16.2296L112.541 15.6918V13.6006C112.791 14.1981 113.478 14.6761 114.164 14.6761C114.601 14.6761 114.851 14.6164 115.163 14.4371V14.4371ZM114.102 19.217C113.79 18.5597 113.041 18.0818 112.292 18.0818C112.104 18.0818 111.605 18.0818 111.106 18.3805C111.418 17.9025 112.229 17.066 113.29 16.4686L114.039 17.066L114.102 19.217V19.217Z" fill="black"/>
</svg>
