<svg width="57" height="30" viewBox="0 0 57 30" fill="none" xmlns="http://www.w3.org/2000/svg">
<rect width="57" height="30" fill="white"/>
<path d="M54.8161 15.5451L54.3336 15.6745C53.8698 14.1216 53.0929 13.4506 51.996 13.4506C51.2254 13.4506 50.6832 13.9511 50.6832 14.7447C50.6832 15.5043 51.3225 15.9094 53.0398 16.5978C54.6251 17.1724 55.2831 17.8763 55.2831 19.1057C55.2831 20.9773 53.7917 22.151 51.3445 22.151C50.1629 22.151 48.8317 21.8915 48.0794 21.5952L47.9855 18.9947L48.4493 18.9022C49.1451 20.6816 50.0346 21.3545 51.1942 21.3545C52.1969 21.3545 52.7237 20.6686 52.7237 19.9646C52.7237 19.2607 52.3167 18.8527 50.7498 18.2969C49.2584 17.8116 48.237 17.185 48.237 15.6224C48.237 14.0844 49.6089 12.781 51.9468 12.781C53.0496 12.781 54.0523 12.9663 54.7104 13.2662L54.8161 15.5451ZM44.7201 16.3604C44.7765 15.1375 44.5258 13.3711 43.5044 13.3711C42.4541 13.3711 41.8813 15.0203 41.8626 16.4348L44.7201 16.3604ZM43.7551 12.7777C46.3244 12.7777 47.5625 14.6308 47.5841 17.0643H41.8062C41.7875 19.2199 42.9467 20.8508 45.1146 20.8508C46.0609 20.8508 46.606 20.5913 47.1824 20.1837L47.4515 20.48C46.8125 21.3325 45.4963 22.1477 43.7417 22.1477C40.9216 22.1477 38.9661 20.239 38.9661 17.546C38.9595 15.1122 40.5645 12.7774 43.7538 12.7774L43.7551 12.7777ZM35.4204 17.2872C35.3639 15.36 34.6497 13.8343 33.2771 13.8343C32.9512 13.8343 32.7004 13.89 32.3121 14.0197L32.425 21.426C32.5629 21.4816 32.8888 21.5185 33.1209 21.5185C34.4557 21.5185 35.4207 19.6592 35.4207 17.2869L35.4204 17.2872ZM38.2847 17.1387C38.2847 20.184 36.3295 22.1481 33.0267 22.1481C31.8451 22.1481 30.6264 21.9627 29.5673 21.722C29.6611 20.4991 29.6611 12.9223 29.5673 11.4989C29.4734 10.7548 29.26 10.4054 28.6811 10.3342L28.2925 10.297V9.95731L32.3683 9.21387C32.3496 9.84375 32.3118 11.4992 32.3118 13.4455C33.0263 13.0935 33.6838 12.8897 34.5742 12.8897C36.6988 12.8897 38.2841 14.669 38.2841 17.1394L38.2847 17.1387ZM27.9006 15.4836C26.6409 14.6684 25.2873 15.0203 25.0178 15.4836C24.8987 16.9071 24.924 19.107 25.0365 20.2338C25.093 20.9779 25.3057 21.2901 25.8889 21.3457L26.6596 21.4202V21.9054H20.9003V21.4202L21.3454 21.3457C21.9034 21.2901 22.1003 20.975 22.1351 20.2338C22.2729 19.0294 22.3107 16.503 22.1351 15.1132C22.0973 14.3164 21.9034 14.0197 21.3454 13.9485L20.9003 13.8929V13.5597L25.0175 12.7813L24.961 14.8566C25.926 12.7072 27.8438 12.4477 28.8839 13.0223L27.9006 15.4836ZM14.3895 17.4726C14.3895 19.7395 15.0131 21.5926 16.2603 21.5926C17.6139 21.5926 18.0025 19.7767 18.0025 17.4726C18.0025 15.1685 17.4038 13.3711 16.1313 13.3711C14.7715 13.3711 14.3891 15.1316 14.3891 17.4726H14.3895ZM20.919 17.4354C20.919 20.0358 19.1769 22.1484 16.0686 22.1484C13.0106 22.1484 11.469 20.141 11.469 17.5092C11.469 14.9275 13.2112 12.7777 16.3194 12.7777C19.3774 12.7777 20.919 14.7974 20.919 17.4351V17.4354ZM12.9168 12.9667L12.2777 13.152C11.7388 11.33 10.7863 10.2921 9.14422 10.2921H7.00095C6.88181 11.5027 6.82536 13.3743 6.88181 15.394L8.31054 15.3196C9.2755 15.3196 9.68249 14.6337 9.91487 13.6334H10.4538V17.8456H9.91487C9.68315 16.8265 9.27583 16.131 8.31054 16.0792L6.88181 16.0608C6.88181 17.5619 6.90052 18.843 7.00095 19.625C7.09482 20.7369 7.40794 21.2432 8.23505 21.3483L9.01227 21.4227V21.908H2.0127V21.4227L2.59561 21.3483C3.40401 21.237 3.73617 20.7336 3.82971 19.625C3.98627 17.8091 4.02402 13.9298 3.82971 11.7742C3.73584 10.6257 3.40368 10.1621 2.59561 10.0692L2.0127 9.97672V9.47592H12.8984L12.9168 12.9667Z" fill="black"/>
</svg>
