<svg width="42" height="30" viewBox="0 0 42 30" fill="none" xmlns="http://www.w3.org/2000/svg">
<rect width="42" height="30" fill="white"/>
<path d="M39.0872 20.4916C39.5898 20.4916 40.5721 20.4916 40.5721 20.4916V22.2613C40.5721 22.2613 38.6532 22.2613 38.2649 22.2613C37.5111 22.2613 36.7801 21.8983 36.9857 21.9891C35.912 21.5126 35.5008 20.3554 35.4095 19.0622V4.24615H37.8309V7.94448V7.96717H40.138V9.69154H37.8309V9.71423V19.2437C37.8765 20.1966 38.4476 20.4916 39.0872 20.4916ZM25.5411 19.1302V11.0075C25.4726 6.4243 33.6048 6.40161 33.4678 11.121V15.0235C33.4678 15.2731 33.2622 15.4546 33.0338 15.4546H27.9625V19.2437C27.9854 21.0361 31.0921 21.0134 31.0921 19.2437V17.4285H33.4906V19.1302C33.6048 23.8269 25.4726 23.7134 25.5411 19.1302ZM31.0464 13.6621V11.0075C31.0464 9.23776 27.9625 9.23776 27.9168 11.0075V13.6621H31.0464ZM20.8582 10.7806C20.8582 9.12431 18.0257 9.16969 17.98 10.8487V22.2613H14.4849V20.4916H15.6043V9.73692H14.2793V7.98985H17.6602V9.28314C17.6602 9.28314 18.0713 8.67053 19.145 8.08061C20.5156 7.33187 21.8633 8.08061 21.6578 7.98985C22.7314 8.46633 23.1426 9.62347 23.2339 10.9168V20.5143H24.7644V22.2613H20.8811L20.8582 10.7806ZM11.2869 0.842773H13.023V29H11.2869V0.842773ZM1.76117 19.1302V11.0075C1.69264 6.4243 9.82488 6.40161 9.68782 11.121V12.5277H7.31211L7.28927 11.0075C7.28927 9.26045 4.22826 9.30582 4.15973 11.0756V19.2437C4.18257 21.0361 7.28927 21.0134 7.28927 19.2437V17.4285H9.68782V19.1302C9.82488 23.8269 1.69264 23.7134 1.76117 19.1302Z" fill="black"/>
</svg>
