<svg width="57" height="30" viewBox="0 0 57 30" fill="none" xmlns="http://www.w3.org/2000/svg">
<rect width="57" height="30" fill="white"/>
<path d="M9.04598 12.0012V18.5733C9.04598 19.3126 9.34384 20.0215 9.87405 20.5442C10.4042 21.067 11.1234 21.3606 11.8732 21.3606C12.623 21.3606 13.3421 21.067 13.8723 20.5442C14.4025 20.0215 14.7004 19.3126 14.7004 18.5733V12.0012C14.7004 11.2619 14.4025 10.553 13.8723 10.0302C13.3421 9.50753 12.623 9.21387 11.8732 9.21387C11.1234 9.21387 10.4042 9.50753 9.87405 10.0302C9.34384 10.553 9.04598 11.2619 9.04598 12.0012V12.0012ZM11.0697 18.5733V12.0012C11.0684 11.8956 11.0896 11.7909 11.1319 11.6939C11.1741 11.5969 11.2365 11.5097 11.315 11.4378C11.3934 11.366 11.4863 11.3111 11.5875 11.2768C11.6888 11.2424 11.7962 11.2293 11.9029 11.2383C12.0054 11.2351 12.1075 11.2526 12.2029 11.2897C12.2983 11.3269 12.3849 11.383 12.4574 11.4545C12.53 11.526 12.5868 11.6114 12.6245 11.7054C12.6623 11.7995 12.68 11.9001 12.6767 12.0012V18.5733C12.6736 18.7747 12.5911 18.967 12.4467 19.1094C12.3022 19.2518 12.1072 19.3331 11.9029 19.3362C11.7974 19.3401 11.6921 19.3235 11.5931 19.2872C11.4941 19.251 11.4033 19.1959 11.3259 19.1251C11.2485 19.0542 11.186 18.969 11.1421 18.8743C11.0981 18.7797 11.0735 18.6774 11.0697 18.5733V18.5733ZM31.0089 9.36057H25.2949V11.3557H27.1401V21.1552H29.1638V11.3557H31.0089V9.36057ZM36.9609 9.36057V18.5733C36.9609 18.7756 36.8794 18.9697 36.7342 19.1127C36.5891 19.2558 36.3923 19.3362 36.1871 19.3362C35.9819 19.3362 35.7851 19.2558 35.64 19.1127C35.4949 18.9697 35.4134 18.7756 35.4134 18.5733V9.36057H33.3302V18.5733C33.3302 19.3203 33.6312 20.0368 34.1669 20.565C34.7027 21.0932 35.4294 21.39 36.1871 21.39C36.9448 21.39 37.6715 21.0932 38.2073 20.565C38.7431 20.0368 39.0441 19.3203 39.0441 18.5733V9.36057H36.9609ZM55.4716 11.3557V9.36057H50.4719V21.1552H55.4716V19.1601H52.4956V16.1088H54.4002V14.1136H52.4956V11.3557H55.4716ZM23.3903 21.1552H21.2476L19.7596 15.5806C20.1308 15.5082 20.4648 15.3103 20.7039 15.0211C20.9429 14.7318 21.0721 14.3694 21.069 13.9963V12.1772C21.0715 12.0687 21.0516 11.9608 21.0106 11.86C20.9696 11.7592 20.9083 11.6677 20.8304 11.591C20.7525 11.5142 20.6597 11.4538 20.5575 11.4133C20.4553 11.3729 20.3458 11.3533 20.2357 11.3557H19.462V21.1552H17.4383V9.36057H20.2357C20.975 9.35403 21.6876 9.63267 22.2214 10.137C22.7552 10.6413 23.0679 11.3314 23.0927 12.0598V13.9376C23.1199 14.4249 23.0319 14.9118 22.8356 15.3598C22.6394 15.8079 22.3403 16.2049 21.9618 16.5195L23.3903 21.1552ZM45.9484 9.36057V15.8154L43.8652 9.36057H41.782V21.1552H43.8652V15.4046L45.7698 21.1552H48.0316V9.36057H45.9484ZM2.20117 9.53661V21.3313H4.34389V16.2848H6.30805V14.2897H4.34389V11.5317H7.43894V9.53661H2.20117Z" fill="black"/>
</svg>
