<?xml version="1.0" encoding="utf-8"?>
<!-- Generator: Adobe Illustrator 24.3.0, SVG Export Plug-In . SVG Version: 6.00 Build 0)  -->
<svg version="1.1" id="Layer_1" xmlns="http://www.w3.org/2000/svg" xmlns:xlink="http://www.w3.org/1999/xlink" x="0px" y="0px"
	 viewBox="0 0 3193.2 1080" style="enable-background:new 0 0 3193.2 1080;" xml:space="preserve">
<g>
	<g>
		<path d="M514.3,453.6c-73-26.9-109.3-41.7-109.3-81.8c0-44.5,34-67.5,73.6-67.5c52.7,0,93.9,45,136.7,126.8h1.1l-7.1-129.6
			c-7.1,1.6-15.9,2.7-24.7,2.7c-32.4,0-53.8-8.2-99.9-8.2C427.6,296,354,328.9,354,414c0,52.2,23.1,88.4,109.8,117.5
			c70.3,24.7,118.6,43.9,118.6,84.6c0,44.5-29.1,67.5-70.8,67.5c-82.9,0-125.2-89.5-149.3-144.4h-1.1v151.5
			c10.4-6,24.7-11,48.3-10.4c28.6,0.5,63.1,11.5,96.1,11.5c54.9,0,128.5-28,128.5-118.6C634,508.5,586.8,478.8,514.3,453.6z"/>
		<path d="M909.5,618.8V411.3H807.3v1.1c22.5,13.2,24.2,36.8,24.2,65.9v171.3c-15.9,10.4-28.6,12.6-39,12.6
			c-18.1,0-25.3-14.3-25.3-31.8V411.3H660.2v1.1c28,14.8,29.1,36.8,29.1,65.9v165.3c0,24.2,12.1,45.6,49.4,45.6
			c34,0,70.8-18.1,92.8-31.3v28h107.1v-1.1C911.1,669.9,909.5,647.9,909.5,618.8z"/>
		<path d="M1086.1,411.3H958.7v1.1c28,14.8,29.1,36.8,29.1,65.9v239.4c0,29.1-1.1,51.1-29.1,65.9v1.1h136.2v-1.1
			c-28-14.8-29.1-36.8-29.1-65.9v-31.8h12.6c67,0,144.4-42.3,144.4-145.5C1222.8,450.8,1165.2,411.3,1086.1,411.3z M1081.2,678.1
			h-15.4V419h1.1c41.2,0,75.8,71.9,75.8,161.4C1142.7,665,1115.2,678.1,1081.2,678.1z"/>
	</g>
	<path d="M1383.4,406.3c-58.2,0-126.3,47.2-126.3,142.8c0,97.2,63.1,141.7,119.7,141.7c58.2,0,95.5-51.6,109.3-96.1l-1.1-0.5
		c-22.5,22-50,35.1-73,35.1c-37.3,0-82.4-27.5-85.1-103.8h163.6C1486.1,450.3,1439.4,406.3,1383.4,406.3z M1326.9,517.8
		c0-75.2,26.9-104.9,45-104.9c25.3,0,44.5,42.3,46.7,104.9H1326.9z"/>
	<path d="M1644.3,411.3h-127.4v1.1c28,14.8,29.1,36.8,29.1,65.9v140.6c0,29.1-1.1,51.1-29.1,65.9v1.1H1653v-1.1
		c-28-14.8-29.1-36.8-29.1-65.9v-201h1.1c26.4,0,39.5,46.1,36.8,99.4l65.9-36.2C1719.5,424.5,1685.4,411.3,1644.3,411.3z"/>
	<path d="M2036.4,601.3l-69.2-109.8c54.9-12.1,84-44.5,84-86.8c0-69.7-62.6-103.2-118.6-103.2h-195.5v1.1
		c25.3,11.5,41.2,36.8,41.2,65.9v250.4c0,29.1-15.9,54.4-41.2,65.9v1.1h168v-1.1c-25.3-11.5-40.6-36.8-40.6-65.9V494.2
		c18.1,1.6,22.5,13.2,49.4,63.7l75.2,127.9h114.8v-1.1C2085.2,674.8,2065.5,647.4,2036.4,601.3z M1894.7,489.8
		c-10.4,0-20.9-0.5-30.2-2.2V309.2h9.9c48.3,0,88.4,43.4,88.4,101.6C1962.8,468.4,1929.9,489.8,1894.7,489.8z"/>
	<path d="M2327.5,618.8V471.7c0-34.6-18.1-64.2-72.5-64.2c-32.4,0-64.2,4.9-88.9,9.3l-45.6,60.9l1.1,1.1
		c19.8-17.6,69.7-62.6,99.4-62.6c20.9,0,31.8,19.2,31.8,42.3c0,32.4-19.2,47.2-71.9,78.5c-47.8,28-71.9,45.6-71.9,86.2
		c0,29.1,20.9,65.3,69.7,65.3c24.7,0,54.4-20.9,71.9-35.7v32.9h106v-1.1C2328.6,669.9,2327.5,647.9,2327.5,618.8z M2250.7,624.3
		c0,23.6-13.7,37.3-30.7,37.3c-17,0-37.3-22.5-37.3-56c0-56.6,13.7-64.8,68.1-109.3V624.3z"/>
	<path d="M2505.9,411.3h-127.4v1.1c28,14.8,29.1,36.8,29.1,65.9v140.6c0,29.1-1.1,51.1-29.1,65.9v1.1h136.2v-1.1
		c-28-14.8-29.1-36.8-29.1-65.9v-201h1.1c26.4,0,39.5,46.1,36.8,99.4l65.9-36.2C2581.1,424.5,2547.1,411.3,2505.9,411.3z"/>
	<path d="M2760.2,629.3c-37.3,0-82.4-27.5-85.1-103.8h163.6c-4.4-75.2-51.1-119.1-107.1-119.1c-58.2,0-126.3,47.2-126.3,142.8
		c0,97.2,63.1,141.7,119.7,141.7c58.2,0,95.5-51.6,109.3-96.1l-1.1-0.5C2810.8,616.1,2783.3,629.3,2760.2,629.3z M2720.2,412.9
		c25.3,0,44.5,42.3,46.7,104.9h-91.7C2675.1,442.6,2702,412.9,2720.2,412.9z"/>
</g>
</svg>
