<svg
    width="100%"
    height="100%"
    viewBox="0 0 278 166"
    fill="none"
    xmlns="http://www.w3.org/2000/svg"
  >
    <title>Vice Logo</title>
    <path
      d="M20.4752 84.4771L20.5452 87.1193C19.8967 87.2214 19.241 87.2692 18.5848 87.2622C16.6594 87.2622 15.6092 86.3338 15.4342 84.4771C14.454 86.5123 12.5286 87.5478 9.55303 87.5478C6.57745 87.5478 3.67188 85.9054 3.67188 82.4062C3.67188 78.5501 6.8575 77.4789 9.62305 76.9433L15.3992 75.8007C15.3992 74.194 15.3292 73.3014 14.8041 72.5516C14.279 71.8017 13.1587 71.3733 11.6184 71.3733C8.57284 71.3733 7.3476 72.5158 7.3476 75.2295L4.26699 74.801C4.33701 72.6587 5.07215 71.0876 6.43742 70.1593C7.69767 69.3024 9.55303 68.8382 11.7935 68.8382C16.2043 68.8382 18.4448 70.8377 18.4448 74.7296V83.2632C18.4448 84.1915 18.4448 84.62 19.46 84.62C19.8028 84.6138 20.1436 84.5658 20.4752 84.4771V84.4771ZM15.3992 78.193L10.1131 79.3713C8.25778 79.7997 6.89251 80.3353 6.89251 82.3705C6.89251 84.0487 8.32779 84.977 10.0431 84.977C13.8589 84.977 15.3992 82.9418 15.3992 80.371V78.193ZM30.5922 69.1238C30.8722 69.0881 31.5374 69.0881 31.7824 69.0881L31.7124 72.1231C31.4452 72.0909 31.1761 72.0789 30.9072 72.0874C27.5816 72.0874 25.1661 73.1585 25.1661 78.9071V87.1193H22.0155V69.2667H25.1661V72.6587C25.6562 70.9805 27.7216 69.4809 30.5922 69.1238ZM39.1374 69.2667H42.7081V71.9446H39.1374V83.0132C39.1374 84.1915 39.6625 84.4057 40.9577 84.4057C41.4982 84.3882 42.0365 84.3285 42.568 84.2272L42.638 87.1193C42.0025 87.2351 41.3583 87.2948 40.7127 87.2979C37.457 87.2979 36.0217 86.0125 36.0217 83.1203V71.9446H33.5013V69.2667H36.0217V64.3036H39.1374V69.2667ZM58.4612 70.8377C59.7914 72.3016 59.8264 74.6225 59.8264 76.5148V87.1193H56.5708V76.6934C56.5708 75.0509 56.6058 73.587 55.5206 72.5516C54.5404 71.5518 53.3852 71.5161 52.405 71.5161C50.8647 71.5161 47.8541 72.1588 47.8541 77.2647V87.1193H44.7035V69.2667H47.8541V71.9803C48.7293 69.9808 50.4446 68.8382 53.2451 68.8382C55.5556 68.8382 57.2009 69.4809 58.4612 70.8377ZM76.7348 72.373C77.785 74.0869 78.3451 76.622 78.2051 79.157H64.9339C65.004 83.0846 66.6143 84.977 69.9049 84.977C72.8805 84.977 74.4908 83.6916 74.9109 80.978L77.9565 81.228C77.1864 85.4055 74.3858 87.5478 69.9434 87.5478C67.2479 87.5478 65.1475 86.7266 63.6422 84.9413C62.1719 83.2632 61.5068 80.9423 61.5068 78.1573C61.5068 75.5151 62.2419 73.1943 63.7122 71.5161C65.2525 69.7308 67.3879 68.8382 69.9084 68.8382C72.674 68.8382 75.2995 70.0522 76.7348 72.373V72.373ZM65.8126 73.3728C65.2641 74.3385 64.9744 75.4345 64.9725 76.5506H74.9844C74.9292 75.4283 74.6046 74.3371 74.0392 73.3728C73.1291 72.016 71.8338 71.4447 69.9434 71.4447C67.983 71.4447 66.5128 72.1945 65.8126 73.3728V73.3728ZM84.1212 71.9446V83.0132C84.1212 84.1915 84.6463 84.4057 85.9416 84.4057C86.482 84.3882 87.0204 84.3285 87.5519 84.2272L87.6219 87.1193C86.9863 87.2351 86.3422 87.2948 85.6965 87.2979C82.4409 87.2979 81.0056 86.0125 81.0056 83.1203V71.9446H78.4851V69.2667H81.0056V64.3036H84.1212V69.2667H87.6884V71.9446H84.1212Z"
      fill="black"
    />
</svg>