<?xml version="1.0" encoding="utf-8"?>
<!-- Generator: Adobe Illustrator 25.2.1, SVG Export Plug-In . SVG Version: 6.00 Build 0)  -->
<svg version="1.1" id="Layer_1" xmlns="http://www.w3.org/2000/svg" xmlns:xlink="http://www.w3.org/1999/xlink" x="0px" y="0px"
	 viewBox="0 0 158 130" style="enable-background:new 0 0 158 130;" xml:space="preserve">
<style type="text/css">
	.st0{fill:#1F1F1A;}
	.st1{fill:#FFFFFF;}
</style>
<path class="st0" d="M40.2,52.3c2.1,6.9,4.6,13.4,7.4,19.7c4.7,11.2,7.9,17.2,12.3,24.5c5.4,8.8,11.3,18.8,21.1,25.3
	c7.2,4.7,15.8,7.2,24.2,7.2c11.8,0,21.9-5.2,28.4-11.2c6.4-5.9,14.6-17.4,14.6-39.7c0-7.7,3.4-14.3,5.9-19.6c0-0.1,0.1-0.3,0.3-0.8
	c1-2.2,2.2-5.1,2.2-7.9c0-2.1-0.6-4.5-2-6.6c-2.2-3.7-6.2-5.1-9.8-5.1c-8.5,0-14.3,5.9-17.3,12l-1,2c-1.2-1.8-2.4-3.6-3.4-5.3
	c-3.1-5.4-4.8-9-6.4-13.7c-1.2-3.6-2.2-7.8-2.9-11.2c-1.9-10.8-4.9-14.3-10-15.6c-3.7-1-8.1-0.2-11.3,1.9C90.5,3.2,86.7,1,81.8,1
	c-7,0-13.4,4.6-13.4,12.4c0,1,0.1,2,0.2,3.2c-0.9-0.2-1.9-0.3-2.9-0.3c-7.6,0-13.2,5.3-13.2,12.4c0,1.6,0.2,3.5,0.8,5.7
	c-0.7-0.1-1.3-0.1-2-0.1c-3.7,0.2-7.2,1.7-9.6,4.6C39.3,41.8,38.3,46.2,40.2,52.3z"/>
<path class="st1" d="M46.4,50.3c-1-3.2-0.9-5.6,0.3-7.2c1.2-1.4,2.9-2.1,4.8-2.2c3.4-0.1,4.7,2.3,6.7,8.6c1.2,4,3.6,9.7,5.1,12.9
	c1.9,3.9,4.5,9,5.7,10.8c1,1.5,1.9,2,2.9,2c1.8,0,3.1-1,3.1-2.8c0-1-1-2.6-1.5-3.6c-1-1.9-3.1-5.6-4.5-8.8
	c-1.5-3.5-3.3-7.9-4.7-11.9c-0.9-2.3-1.9-5.6-2.9-8.9c-1.5-5.1-2.3-8.1-2.3-10.5c0-3.5,2.6-5.8,6.6-5.8c2.9,0,4.7,1.4,5.9,6.6
	c1,4.7,2.8,12.4,5.3,18.5c1.7,4,4.1,9.2,5.5,11.9c0.9,1.5,1.9,2.9,1.9,3.4c0,0.8-1.4,2-2.6,3.6c-0.8,1-1.1,1.7-1.1,2.4
	c0,0.7,0.4,1.3,1.1,2.2c0.7,0.9,1.3,1.8,2.1,1.8c0.6,0,0.9-0.2,1.2-0.7c3.4-4.3,7.2-7.3,11.4-9.7c5.1-2.9,10.2-4.3,14.3-5.2
	c2-0.4,2.5-0.9,2.5-2c0-1.3-1-2.1-2.3-2.2c-1-0.1-1.9,0-3.4,0.1c-1.1,0.1-1.7-0.4-2.3-1.9c-2-4.2-5.8-11.2-8.1-20.2
	c-1-3.9-1.9-7.9-2.4-13.2c-0.3-2.4,0.1-3.3,1.3-4.4c1.5-1.3,4.3-1.9,6.4-1.3c2.5,0.7,3.8,2.6,5.2,10.3c0.7,3.6,1.8,8.2,3.1,12.2
	c1.7,5.1,3.7,9.2,6.9,14.9c1.8,3.1,4,6.3,6.3,9.4c-0.4,1.3-1.2,2.2-3.7,4.3c-2.5,2.1-5.1,4.3-7.4,8.4c-1.7,3-2.4,6.3-2.4,8.5
	c0,2.1,0.4,2.5,1.8,2.5c2.3,0,4.2-0.4,4.3-1.4c0.6-4,1.2-6.5,3.4-9.5c1.3-1.7,3.6-3.7,5.5-5.4c3.5-2.9,4.7-4.5,5.9-8.6
	c0.6-1.9,1.2-3.6,2.1-5.3c2.1-3.8,5.8-8.2,11.7-8.2c1.9,0,3.4,0.5,4.4,2.1c0.6,0.9,0.8,2.1,0.8,3c0,2-1.4,4.7-2.1,6
	c-2.4,5.2-6.4,13.1-6.4,22.2c0,19.9-7,29.8-12.6,34.9c-5.4,5.1-13.9,9.5-23.9,9.5c-7.2,0-14.5-2.1-20.6-6.1
	c-8.5-5.6-13.8-14.4-19.2-23.2c-4.3-7.2-7.3-12.8-11.9-23.7C51,63.2,48.5,57,46.4,50.3z"/>
<path class="st1" d="M74.7,13.4c0-4.2,3.8-5.8,7-5.8c3.4,0,4.6,1.7,5.5,5.2c0.8,2.9,1.1,5.5,1.4,8.6c0.4,3.1,2,10.1,2.4,11.9
	c1.7,6,4.9,13.2,8.9,21.8c-2.3,0.8-5.4,2.1-7.5,3.2c-2.6,1.4-3.2,1.4-4.3-0.7c-2.3-4.3-4-7.5-5.4-11.2c-1.2-3.1-2.4-6.6-3.4-10.7
	c-1.7-6.9-1.9-8.9-3.2-12.1C75.5,20.3,74.7,16.2,74.7,13.4z"/>
<path class="st0" d="M35.3,87.1C33,88.6,20.6,95,17.9,96.1c-2,0.7-4.1,0.6-5.4-3.2c-1.6-4.7,0.6-5.8,3.8-7
	c2.8-1.1,14.2-5.2,16.9-5.9c1.9-0.5,3.2,0.1,4.1,2.4C38.1,84.8,37.4,85.8,35.3,87.1"/>
<path class="st0" d="M25.1,60.9C21.8,61,8,60.4,4.9,60.1c-2.7-0.3-3.8-1.5-3.5-5.5c0.3-4.3,2-4.5,4.7-4.3c3.1,0.3,17.6,2.7,19.9,3.4
	c2.4,0.7,2.7,1.8,2.4,3.9C27.9,60.3,26.7,60.9,25.1,60.9"/>
<path class="st0" d="M26.9,33c-3.8-1.2-15.1-8-18-9.8c-2.7-1.6-3-3-1.2-6.5c1.6-3.1,3.5-3.6,6.2-2.2C17,16,28,24.6,30.1,26.3
	c2,1.6,1.8,2.5,0.7,4.6C29.8,33,28.8,33.6,26.9,33"/>
</svg>
