<svg width="15" height="27" viewBox="0 0 15 27" fill="none" xmlns="http://www.w3.org/2000/svg">
<path fill-rule="evenodd" clip-rule="evenodd" d="M5.9859 3.88188C7.85842 2.77455 8.87986 1.67869 8.87986 0.309814V3.84654C9.33799 3.88974 9.74428 3.94593 10.1321 3.99957C10.7918 4.09079 11.398 4.17464 12.1151 4.17464C12.5416 4.17464 12.9681 4.12086 13.3146 4.04021L13.6611 10.3852H13.6078C11.5286 6.37927 9.52947 4.17464 6.97052 4.17464C5.05131 4.17464 3.39866 5.30384 3.39866 7.48158C3.39866 9.0552 4.52961 9.83378 6.80526 10.7596V15.5032C6.62383 15.4379 6.43895 15.372 6.25082 15.3053C2.03922 13.8804 0.919678 12.1059 0.919678 9.55178C0.919678 6.00535 3.50652 4.30871 5.9859 3.88188ZM9.98306 22.9704C7.92932 24.1346 6.80395 25.2707 6.80395 26.7075V23.036C6.43596 22.9835 6.06971 22.9196 5.70965 22.8568C4.97175 22.7281 4.25979 22.6039 3.6119 22.5914C2.46571 22.5645 1.77266 22.8064 1.2662 23.1022V15.6817H1.31951C2.49236 18.3703 4.54485 22.7527 8.56986 22.7527C10.5957 22.7527 12.0084 21.6235 12.0084 19.4457C12.0084 18.0241 10.8108 17.1378 8.88219 16.3063V11.5511C12.2993 12.7743 14.5141 14.2303 14.5141 17.3486C14.5141 20.8798 12.2509 22.469 9.98306 22.9704Z" fill="black"/>
</svg>
