<svg width="181" height="31" viewBox="0 0 181 31" fill="none" xmlns="http://www.w3.org/2000/svg">
<path fill-rule="evenodd" clip-rule="evenodd" d="M26.1017 0.445007H7.36124L0 8.32462L16.7265 28.1083L33.4629 8.32462L26.1017 0.445007ZM8.10531 8.32462L13.0459 3.03502H24.1373L29.0779 8.32462L18.5916 20.7268L8.10531 8.32462Z" fill="black"/>
<path d="M46.6711 1.9968C41.1335 1.9968 38.7949 5.16589 38.7949 8.58132C38.7949 11.5072 40.3203 13.6452 43.472 15.0379C45.1979 15.8006 47.8711 16.9801 47.8711 16.9801C49.9633 17.9039 50.6708 19.1292 50.6708 20.604C50.6708 22.6078 49.2559 23.9421 46.9964 23.9421C44.0957 23.9421 41.3229 21.114 39.5134 16.3138H39.3271V23.9042C40.9992 24.3542 44.2173 24.7647 46.4879 24.7647C51.0481 24.7647 53.8699 21.8593 53.8699 17.6465C53.8699 14.9085 52.6698 12.8889 49.4391 11.4125L44.7936 9.22714C42.6714 8.24183 41.9324 7.24705 41.9324 5.80066C41.9324 4.02584 43.5667 2.82105 45.6384 2.82105C48.5012 2.82105 50.7576 5.50538 52.2861 9.12924H52.4756V2.63156C51.1287 2.3505 48.6875 1.9968 46.6711 1.9968Z" fill="black"/>
<path d="M165.371 7.74603C162.649 7.74603 160.771 9.77981 160.522 14.8169H160.365V8.19605H160.362H154.076V8.38396C154.076 8.38396 154.078 8.38396 154.079 8.38396C155.516 8.85766 155.922 10.0482 155.922 11.7678V20.724C155.922 22.5004 155.69 23.6452 154.236 24.1079V24.2958H163.096V24.1079C161.265 23.7052 160.556 22.5983 160.553 20.4572V17.3891C160.553 13.5047 162.161 12.6331 163.762 12.6331C164.446 12.6331 165.099 12.8526 165.54 13.0658L165.717 12.9994V7.74603H165.372H165.371Z" fill="black"/>
<path d="M151.796 20.724V13.8253C151.796 9.82086 149.882 7.74445 145.651 7.74445C143.926 7.74445 141.13 8.24184 139.559 8.7487V14.9701H139.751C141.166 11.1662 143.238 8.53711 145.164 8.53711C146.604 8.53711 147.167 9.62032 147.167 11.1804V15.4832H145.959C140.776 15.4832 138.719 18.0697 138.719 20.8551C138.719 22.9204 140.22 24.7663 142.911 24.7663C145.257 24.7663 146.813 23.3057 147.252 21.7409C147.354 22.9852 147.972 23.991 148.417 24.2973H153.623V24.1094C152.125 23.6452 151.798 22.5067 151.798 20.7256M147.167 21.144C146.86 21.9178 146.197 22.3899 145.321 22.3899C143.819 22.3899 143.037 21.1377 143.037 19.5429C143.037 17.2865 144.425 16.2617 146.437 16.2617H147.168V21.144H147.167Z" fill="black"/>
<path d="M70.1512 20.7224V8.20552H63.9883V8.39342C65.3289 8.87976 65.5215 10.0577 65.5215 11.7473V21.0161C65.1457 21.7662 64.4273 22.2951 63.4877 22.3267C62.0793 22.3267 61.2345 21.3872 61.2345 19.5729V8.20552H54.7573V8.39342C56.1974 8.86555 56.6032 10.0577 56.6032 11.7788V19.6992C56.6032 23.2662 58.3859 24.7679 61.1097 24.7679C63.2998 24.7679 64.8946 23.3562 65.5215 21.5735V24.2973H71.9987V24.1094C70.5586 23.6373 70.1528 22.4451 70.1528 20.724" fill="black"/>
<path d="M83.3912 7.74603C81.4206 7.74603 79.6994 8.77871 78.9178 10.5299V8.19448H72.4407V8.39185C73.8792 8.86398 74.2866 10.0561 74.2866 11.7773V26.9817C74.2866 28.7028 73.8807 29.8934 72.4407 30.3671V30.555H81.4601V30.3671C79.6394 29.8571 78.9178 28.8528 78.9178 26.7022V23.7273C79.5684 24.4616 80.6074 24.7663 81.6085 24.7663C85.9571 24.7663 89.1799 20.9798 89.1799 15.4422C89.1799 10.7793 86.7387 7.74603 83.3912 7.74603ZM80.8569 23.9531C79.8558 23.9531 79.2305 23.421 78.9178 22.9836V11.1709C79.2621 10.5456 80.0216 9.90456 80.86 9.90456C82.987 9.90456 84.1728 12.6268 84.1728 16.9438C84.1728 21.2609 82.7643 23.9515 80.8569 23.9515" fill="black"/>
<path d="M136.255 21.7551C135.453 20.5029 130.924 13.4242 130.924 13.4242C133.855 12.8147 135.793 10.4177 135.793 7.95603C135.793 4.67166 133.786 2.39156 127.778 2.39156H118.21V2.5842C119.874 3.00737 120.369 4.34639 120.369 6.25542V20.4382C120.369 22.3472 119.873 23.6863 118.21 24.1094V24.2958H128.041V24.1094C126.221 23.7099 125.51 22.6094 125.501 20.4887V14.1347H126.121L132.303 24.2958H138.723V24.1094C137.796 23.7336 137.059 23.0089 136.257 21.7551M126.371 13.3531H125.501V3.17475H126.588C129.56 3.17475 130.468 5.2338 130.468 8.04919C130.468 11.5151 129.216 13.3531 126.369 13.3531" fill="black"/>
<path d="M136.255 21.7551C135.453 20.5029 130.924 13.4242 130.924 13.4242C133.855 12.8147 135.793 10.4177 135.793 7.95603C135.793 4.67166 133.786 2.39156 127.778 2.39156H118.21V2.5842C119.874 3.00737 120.369 4.34639 120.369 6.25542V20.4382C120.369 22.3472 119.873 23.6863 118.21 24.1094V24.2958H128.041V24.1094C126.221 23.7099 125.51 22.6094 125.501 20.4887V14.1347H126.121L132.303 24.2958H138.723V24.1094C137.796 23.7336 137.059 23.0089 136.257 21.7551M126.371 13.3531H125.501V3.17475H126.588C129.56 3.17475 130.468 5.2338 130.468 8.04919C130.468 11.5151 129.216 13.3531 126.369 13.3531" fill="black"/>
<path d="M117.321 7.74603C114.599 7.74603 112.722 9.77981 112.472 14.8169H112.316V8.19605H112.313H106.027V8.38396C106.027 8.38396 106.028 8.38396 106.03 8.38396C107.467 8.85766 107.872 10.0482 107.872 11.7678V20.724C107.872 22.5004 107.64 23.6452 106.186 24.1079V24.2958H115.046V24.1079C113.216 23.7052 112.507 22.5983 112.504 20.4572V17.3891C112.504 13.5047 114.111 12.6331 115.712 12.6331C116.396 12.6331 117.05 12.8526 117.49 13.0658L117.667 12.9994V7.74603H117.323H117.321Z" fill="black"/>
<path d="M104.675 18.6302C103.893 23.1352 100.888 24.7616 98.1661 24.7616C94.3149 24.7616 91.22 21.9462 91.22 16.5649C91.22 11.1836 94.0669 7.74287 98.354 7.74287C101.882 7.74287 104.643 9.94245 104.643 14.5706C104.643 14.6511 104.643 14.918 104.643 15.0001H94.8501C94.8501 18.9081 96.8934 21.1125 100.168 21.1125C101.869 21.1125 103.532 20.2898 104.455 18.5687L104.675 18.6318V18.6302ZM94.8186 13.6705V14.2184H100.231C100.231 14.0669 100.231 13.8063 100.231 13.7053C100.231 9.88877 99.1893 8.56239 97.6655 8.56239C95.8781 8.56239 94.8186 10.5425 94.8186 13.6705Z" fill="black"/>
<path d="M180.105 18.6302C179.323 23.1352 176.318 24.7616 173.596 24.7616C169.743 24.7616 166.65 21.9462 166.65 16.5649C166.65 11.1836 169.497 7.74287 173.784 7.74287C177.311 7.74287 180.073 9.94245 180.073 14.5706C180.073 14.6511 180.073 14.918 180.073 15.0001H170.28C170.28 18.9081 172.323 21.1125 175.598 21.1125C177.299 21.1125 178.962 20.2898 179.885 18.5687L180.105 18.6318V18.6302ZM170.248 13.6705V14.2184H175.661C175.661 14.0669 175.661 13.8063 175.661 13.7053C175.661 9.88877 174.619 8.56239 173.095 8.56239C171.308 8.56239 170.248 10.5425 170.248 13.6705Z" fill="black"/>
</svg>
